<svg width="58" height="57" viewBox="0 0 58 57" fill="none" xmlns="http://www.w3.org/2000/svg">
<path d="M9.94131 0.983699C9.76778 0.993128 9.5997 1.04755 9.45357 1.14161C9.30744 1.23566 9.1883 1.36613 9.10785 1.52017C9.0274 1.6742 8.98841 1.84652 8.99472 2.02018C9.00102 2.19385 9.0524 2.36283 9.14381 2.51063L17.4098 16.31C16.0869 17.1339 14.8548 18.094 13.7436 19.1712L2.85077 1.48256C2.75717 1.32372 2.62154 1.19381 2.45882 1.10712C2.2961 1.02042 2.1126 0.98028 1.92855 0.991197C1.75458 1.002 1.58644 1.05803 1.44075 1.15372C1.29506 1.24941 1.17687 1.38153 1.09785 1.53689C1.01883 1.69226 0.981723 1.86558 0.990199 2.03968C0.998674 2.21377 1.05244 2.38259 1.14617 2.52954L12.228 20.5318C12.2581 20.58 12.2922 20.6255 12.33 20.6679C8.88921 24.6498 6.99739 29.7376 7.00078 35.0001C7.00478 40.8329 9.32363 46.4257 13.4481 50.5501C17.5725 54.6746 23.1652 56.9934 28.9981 56.9974C34.8309 56.9934 40.4236 54.6746 44.5481 50.5501C48.6725 46.4257 50.9913 40.8329 50.9953 35.0001C50.9996 29.7363 49.1078 24.647 45.6661 20.6641L56.8537 2.52954C56.9232 2.41787 56.97 2.29356 56.9915 2.16379C57.013 2.03402 57.0086 1.90133 56.9788 1.77323C56.949 1.64513 56.8942 1.52421 56.8176 1.41728C56.741 1.31034 56.6441 1.21951 56.5325 1.15003C56.4208 1.08054 56.2965 1.03365 56.1667 1.01219C56.037 0.990728 55.9043 0.995045 55.7761 1.02488C55.648 1.05471 55.5271 1.10954 55.4201 1.18613C55.3132 1.26271 55.2224 1.35958 55.1529 1.47126L44.2488 19.1598C43.1356 18.0875 41.9132 17.135 40.6014 16.3176C40.6067 16.3076 40.6117 16.2975 40.6166 16.2874L48.8561 2.51063C48.9484 2.36094 48.9997 2.18963 49.0048 2.01384C49.0098 1.83805 48.9686 1.66398 48.885 1.50921C48.8015 1.35444 48.6787 1.2244 48.529 1.13215C48.3793 1.03989 48.2079 0.988712 48.0321 0.983699C47.8526 0.980185 47.6755 1.02503 47.5192 1.11346C47.3629 1.2019 47.2333 1.33066 47.1439 1.48637L38.9006 15.2593C38.8857 15.2839 38.8718 15.3091 38.859 15.3348C37.6428 14.7264 36.3724 14.233 35.0643 13.8609L41.8601 2.51063C41.9525 2.36067 42.0038 2.18902 42.0087 2.01292C42.0136 1.83682 41.972 1.66258 41.888 1.50771C41.8041 1.35283 41.6808 1.22276 41.5305 1.13076C41.3803 1.03877 41.2084 0.988066 41.0323 0.983699C40.8522 0.979501 40.6742 1.02395 40.5172 1.11242C40.3602 1.20089 40.23 1.33009 40.1403 1.48637L33.0196 13.377C30.3588 12.8828 27.6298 12.8828 24.969 13.377C24.9509 13.3418 24.9307 13.3077 24.9085 13.2749L17.8558 1.48637C17.7637 1.32542 17.6287 1.19322 17.4659 1.10446C17.303 1.01571 17.1188 0.9739 16.9336 0.983699C16.7604 0.993745 16.5928 1.04857 16.4471 1.14287C16.3015 1.23718 16.1829 1.36773 16.1029 1.52167C16.0228 1.6756 15.9842 1.84762 15.9907 2.02099C15.9972 2.19436 16.0486 2.3631 16.1399 2.51063L22.928 13.857C21.6127 14.235 20.3503 14.7301 19.1484 15.331L10.8484 1.48637C10.7572 1.32719 10.624 1.19611 10.4634 1.10746C10.3027 1.01882 10.1208 0.976027 9.93753 0.983699H9.94131ZM28.9981 14.9947C31.6251 14.9937 34.2266 15.5105 36.6538 16.5156C39.081 17.5207 41.2863 18.9944 43.1436 20.8523C45.0009 22.7103 46.4737 24.9162 47.4779 27.3438C48.4821 29.7714 48.9979 32.373 48.9959 35.0001C48.9984 37.6267 48.483 40.2279 47.4791 42.6551C46.4752 45.0822 45.0026 47.2875 43.1456 49.1449C41.2885 51.0023 39.0834 52.4753 36.6565 53.4797C34.2295 54.484 31.6284 54.9999 29.0018 54.9979C26.3753 55.0004 23.774 54.485 21.3469 53.4812C18.9198 52.4773 16.7144 51.0047 14.857 49.1477C12.9996 47.2906 11.5266 45.0855 10.5222 42.6585C9.51791 40.2316 9.00198 37.6305 9.00397 35.0039C9.00098 32.3767 9.516 29.7747 10.5196 27.3467C11.5231 24.9187 12.9955 22.7124 14.8525 20.8539C16.7096 18.9955 18.9148 17.5215 21.342 16.5161C23.7692 15.5107 26.3708 14.9937 28.9981 14.9947ZM28.9981 18.9972C24.7561 19.0023 20.6894 20.6901 17.6905 23.6904C14.6917 26.6906 13.0058 30.7581 13.0028 35.0001C13.0058 39.2418 14.6918 43.3088 17.6908 46.3085C20.6897 49.3081 24.7564 50.9952 28.9981 50.9992C33.241 50.9962 37.3095 49.3099 40.3105 46.3103C43.3114 43.3108 44.9997 39.2431 45.0047 35.0001C44.9987 30.7571 43.3102 26.6896 40.3096 23.6897C37.309 20.6898 33.2411 19.0022 28.9981 18.9972ZM28.9981 21.0004C30.8371 20.9989 32.6584 21.36 34.3578 22.063C36.0572 22.766 37.6014 23.7971 38.902 25.0973C40.2025 26.3976 41.2341 27.9414 41.9375 29.6406C42.6409 31.3399 43.0025 33.1611 43.0015 35.0001C43.003 36.8391 42.6417 38.6604 41.9384 40.3596C41.2351 42.0588 40.2036 43.6026 38.9028 44.9027C37.6021 46.2027 36.0577 47.2335 34.3581 47.9359C32.6585 48.6382 30.8371 48.9985 28.9981 48.996C27.1597 48.998 25.339 48.6373 23.6403 47.9346C21.9415 47.2319 20.3981 46.201 19.0984 44.9009C17.7987 43.6008 16.7682 42.0571 16.0659 40.3582C15.3637 38.6593 15.0035 36.8385 15.006 35.0001C15.0035 33.1614 15.3636 31.3402 16.0658 29.6409C16.7679 27.9415 17.7983 26.3973 19.0979 25.0967C20.3976 23.796 21.9409 22.7643 23.6397 22.0608C25.3385 21.3573 27.1594 20.9956 28.9981 20.9966V21.0004ZM29.017 25.9972C28.9816 25.9978 28.9462 26.0003 28.9111 26.0046C28.741 26.0203 28.5777 26.0792 28.4368 26.1758C28.2959 26.2724 28.1821 26.4035 28.1061 26.5565L25.9744 30.8766L21.197 31.5758C21.012 31.6026 20.8382 31.6806 20.6952 31.801C20.5523 31.9215 20.4459 32.0795 20.3881 32.2572C20.3303 32.435 20.3234 32.6254 20.3681 32.8068C20.4129 32.9883 20.5075 33.1537 20.6414 33.2841L24.0997 36.6404L23.2871 41.3951C23.2557 41.5788 23.2761 41.7675 23.3461 41.9402C23.4161 42.1128 23.5329 42.2625 23.6832 42.3725C23.8336 42.4824 24.0117 42.5482 24.1974 42.5625C24.3832 42.5769 24.5692 42.539 24.7347 42.4534L28.9981 40.2046L33.269 42.4497C33.4343 42.5361 33.6203 42.5745 33.8063 42.5608C33.9922 42.5471 34.1707 42.4818 34.3215 42.3722C34.4723 42.2626 34.5896 42.1131 34.6601 41.9405C34.7305 41.7679 34.7514 41.579 34.7204 41.3951L33.9002 36.6404L37.3548 33.2841C37.4885 33.1539 37.5832 32.9889 37.6282 32.8077C37.6731 32.6265 37.6665 32.4364 37.6091 32.2587C37.5518 32.0811 37.4459 31.923 37.3034 31.8023C37.161 31.6816 36.9876 31.6032 36.8029 31.5758L32.0331 30.8842L29.9014 26.5565C29.8193 26.3914 29.6934 26.2523 29.5373 26.1542C29.3813 26.0562 29.2012 26.0031 29.017 26.0008V25.9972ZM28.9981 29.2589L30.4721 32.2335C30.5429 32.3791 30.648 32.5053 30.7784 32.6014C30.9087 32.6975 31.0604 32.7606 31.2205 32.7853L34.5087 33.2652L32.1276 35.5783C32.0124 35.6919 31.9265 35.8317 31.8771 35.9857C31.8278 36.1398 31.8164 36.3034 31.8441 36.4628L32.4035 39.7321L29.4667 38.1901C29.3228 38.1143 29.1626 38.0746 29 38.0746C28.8373 38.0746 28.6771 38.1143 28.5332 38.1901L25.5964 39.7321L26.1558 36.4628C26.183 36.3031 26.1711 36.1393 26.121 35.9853C26.071 35.8312 25.9844 35.6915 25.8686 35.5783L23.4912 33.2652L26.7794 32.7853C26.9402 32.7612 27.0926 32.6984 27.2237 32.6022C27.3547 32.5061 27.4604 32.3796 27.5316 32.2335L28.9981 29.2589Z" fill="#FFC727"/>
</svg>
