<svg width="56" height="32" viewBox="0 0 56 32" fill="none" xmlns="http://www.w3.org/2000/svg">
<path d="M47.5187 19.9375C48.5573 19.1666 49.3263 18.0879 49.7165 16.8548C50.1068 15.6217 50.0983 14.2969 49.6923 13.0689C49.2864 11.8409 48.5036 10.7721 47.4553 10.0146C46.407 9.25706 45.1465 8.84929 43.8531 8.84929C42.5597 8.84929 41.2993 9.25706 40.251 10.0146C39.2027 10.7721 38.4199 11.8409 38.0139 13.0689C37.608 14.2969 37.5995 15.6217 37.9897 16.8548C38.3799 18.0879 39.149 19.1666 40.1875 19.9375L39.3812 20.2562C37.429 18.0711 34.9015 16.4792 32.0875 15.6625C33.6234 14.7208 34.8097 13.3034 35.4661 11.6256C36.1224 9.94788 36.2129 8.10168 35.7237 6.36781C35.2345 4.63394 34.1924 3.10727 32.7559 2.02001C31.3195 0.932737 29.5672 0.34436 27.7656 0.34436C25.9641 0.34436 24.2118 0.932737 22.7753 2.02001C21.3388 3.10727 20.2968 4.63394 19.8076 6.36781C19.3184 8.10168 19.4088 9.94788 20.0652 11.6256C20.7215 13.3034 21.9079 14.7208 23.4437 15.6625C20.7026 16.4563 18.2317 17.9868 16.3 20.0875L15.85 19.9C16.884 19.1263 17.6482 18.0468 18.0343 16.8145C18.4204 15.5822 18.4088 14.2596 18.0011 13.0343C17.5935 11.809 16.8104 10.743 15.763 9.98766C14.7156 9.23227 13.457 8.82577 12.1656 8.82577C10.8742 8.82577 9.61564 9.23227 8.56823 9.98766C7.52083 10.743 6.73778 11.809 6.33011 13.0343C5.92244 14.2596 5.91084 15.5822 6.29694 16.8145C6.68304 18.0468 7.44726 19.1263 8.48125 19.9C6.24643 20.6682 4.30673 22.1141 2.93221 24.0364C1.55769 25.9588 0.816734 28.2618 0.8125 30.625C0.8125 30.8736 0.911272 31.1121 1.08709 31.2879C1.2629 31.4637 1.50136 31.5625 1.75 31.5625H54.25C54.4986 31.5625 54.7371 31.4637 54.9129 31.2879C55.0887 31.1121 55.1875 30.8736 55.1875 30.625C55.1755 28.2682 54.4309 25.9735 53.0569 24.0587C51.683 22.1438 49.7475 20.7036 47.5187 19.9375ZM39.5687 15.0625C39.5687 14.217 39.8195 13.3904 40.2892 12.6874C40.759 11.9844 41.4266 11.4365 42.2078 11.1129C42.9889 10.7893 43.8485 10.7047 44.6778 10.8696C45.507 11.0346 46.2688 11.4417 46.8666 12.0396C47.4645 12.6375 47.8717 13.3992 48.0366 14.2285C48.2016 15.0577 48.1169 15.9173 47.7933 16.6985C47.4698 17.4796 46.9218 18.1473 46.2188 18.617C45.5158 19.0868 44.6893 19.3375 43.8438 19.3375C43.2823 19.3375 42.7264 19.2269 42.2078 19.0121C41.6891 18.7972 41.2178 18.4823 40.8209 18.0854C40.4239 17.6884 40.109 17.2171 39.8942 16.6985C39.6793 16.1798 39.5687 15.6239 39.5687 15.0625ZM43.8438 21.2125C46.1906 21.203 48.4558 22.074 50.1915 23.6536C51.9273 25.2332 53.0075 27.4063 53.2188 29.7437H43.3187C43.1534 26.8985 42.2061 24.154 40.5812 21.8125C41.622 21.4094 42.7277 21.1997 43.8438 21.1937V21.2125ZM21.3438 8.68748C21.3438 7.42292 21.7187 6.18675 22.4213 5.1353C23.1238 4.08386 24.1224 3.26435 25.2907 2.78043C26.459 2.2965 27.7446 2.16988 28.9849 2.41658C30.2251 2.66329 31.3644 3.27223 32.2586 4.16642C33.1527 5.0606 33.7617 6.19986 34.0084 7.44012C34.2551 8.68039 34.1285 9.96596 33.6446 11.1343C33.1606 12.3026 32.3411 13.3011 31.2897 14.0037C30.2382 14.7062 29.0021 15.0812 27.7375 15.0812C26.8979 15.0788 26.0669 14.911 25.2921 14.5874C24.5174 14.2638 23.8139 13.7908 23.2219 13.1953C22.6299 12.5998 22.1611 11.8936 21.842 11.1169C21.523 10.3403 21.36 9.50837 21.3625 8.66873L21.3438 8.68748ZM12.1562 10.7875C13.0026 10.7838 13.8309 11.0313 14.5364 11.4988C15.2419 11.9663 15.7927 12.6327 16.1192 13.4135C16.4456 14.1943 16.533 15.0544 16.3701 15.8849C16.2073 16.7154 15.8016 17.4789 15.2045 18.0787C14.6074 18.6784 13.8457 19.0874 13.0159 19.2539C12.1862 19.4204 11.3256 19.3368 10.5434 19.0138C9.76114 18.6908 9.09237 18.1429 8.62179 17.4395C8.15121 16.7361 7.90001 15.9088 7.9 15.0625C7.89999 13.9319 8.34782 12.8474 9.14548 12.0462C9.94315 11.245 11.0257 10.7924 12.1562 10.7875ZM12.1562 21.1937C13.1354 21.1858 14.1097 21.3313 15.0438 21.625C13.3526 23.9971 12.3648 26.798 12.1938 29.7062H2.81875C3.0338 27.3787 4.1106 25.2154 5.838 23.6406C7.56539 22.0658 9.81877 21.1932 12.1562 21.1937ZM22.5625 29.725H14.0687C14.2918 26.2489 15.8299 22.9882 18.3705 20.6053C20.9111 18.2225 24.2637 16.8963 27.7469 16.8963C31.2301 16.8963 34.5826 18.2225 37.1232 20.6053C39.6639 22.9882 41.202 26.2489 41.425 29.725H22.5625Z" fill="#FFC727"/>
</svg>
