<svg width="57" height="43" viewBox="0 0 57 43" fill="none" xmlns="http://www.w3.org/2000/svg">
<path d="M56.1229 12.5929L53.1268 6.43142V6.42193L52.3974 4.91795C52.3927 4.90971 52.3885 4.90127 52.3847 4.89263C51.6265 3.47092 48.6972 0.549431 46.0468 0.267829C45.2563 0.184509 44.6318 0.118064 44.0556 0.373298C43.4794 0.628532 43.1579 1.10314 42.7304 1.7117C42.6152 1.87623 42.3086 2.31287 42.213 6.44935C42.1819 6.66029 41.578 7.45763 39.9648 8.45326C38.5197 9.34552 37.2153 9.80959 36.6506 9.81592L34.5199 9.61974C34.8956 7.18341 33.0634 3.92443 30.746 2.03759C30.3809 1.73953 29.9443 1.52419 29.4715 1.40895C28.9987 1.29371 28.5029 1.2818 28.0242 1.37418C27.5455 1.46656 27.0971 1.66063 26.7154 1.94076C26.3337 2.22088 26.0293 2.5792 25.8267 2.98681L25.8197 3.00052L22.5056 10.0595C21.9054 10.4467 21.3491 10.888 20.8451 11.3769C20.7552 11.4623 20.7218 11.4939 19.1684 13.7594C18.6049 14.581 17.9308 15.5671 17.2163 16.607C15.8013 18.6753 14.1799 21.0441 12.9919 22.7622L12.9838 22.7738L12.8086 23.0259L12.7545 23.1029L12.6392 23.2748L12.524 23.4456L12.4756 23.5152C12.0423 24.1386 11.7012 24.6216 11.4996 24.8958C11.48 24.9222 11.4638 24.9454 11.4466 24.9676L11.4304 24.9897C11.4201 25.0045 11.4108 25.015 11.4016 25.0277C11.3924 25.0403 11.3832 25.0509 11.3763 25.0604L1.27828 33.9978L1.25754 34.0157C0.774706 34.4713 0.566132 35.2117 0.646796 36.2137C0.699803 36.8971 0.888788 37.6449 1.1181 38.0763C1.15844 38.1511 1.20568 38.2281 1.25869 38.3083C1.26711 38.4665 1.32749 38.6186 1.43194 38.7449C1.53638 38.8712 1.68002 38.9657 1.84408 39.016C2.22366 39.4058 2.64568 39.7592 3.10359 40.0707C3.94135 40.6339 4.72955 40.9144 5.43017 40.9144C5.74174 40.9166 6.04995 40.8554 6.33246 40.7351L7.93191 40.1466L10.6192 42.6557C10.7461 42.7743 10.9105 42.8533 11.0892 42.8816C11.268 42.9098 11.4519 42.8857 11.6148 42.8129L14.1027 41.7023C14.261 41.6317 14.392 41.5185 14.4781 41.3779C14.5642 41.2373 14.6013 41.0759 14.5844 40.9155L14.2583 37.8242L14.5752 37.7082L17.0919 39.8386C17.2196 39.9471 17.3802 40.0177 17.5526 40.041C17.7249 40.0643 17.901 40.0394 18.0576 39.9694L20.5743 38.8472C20.7303 38.7775 20.8599 38.6663 20.946 38.5282C21.0321 38.3902 21.0708 38.2316 21.0571 38.0731L20.8082 35.2096L21.1032 35.0788L23.5381 37.1914C23.666 37.3017 23.8274 37.3738 24.0011 37.3983C24.1748 37.4228 24.3525 37.3985 24.5107 37.3285L27.0228 36.2074C27.181 36.1369 27.3119 36.0239 27.398 35.8835C27.4841 35.7431 27.5213 35.5819 27.5045 35.4216L27.1887 32.3694L40.4234 26.4874L42.8664 28.6062C42.9941 28.7171 43.1558 28.7897 43.3298 28.8142C43.5038 28.8387 43.6819 28.814 43.8401 28.7433L46.3522 27.6233C46.5104 27.5528 46.6413 27.4398 46.7274 27.2994C46.8135 27.159 46.8507 26.9978 46.8339 26.8375L46.5158 23.7789L46.9768 23.5733L49.437 25.7079C49.5648 25.8185 49.7263 25.8907 49.9001 25.915C50.0739 25.9393 50.2516 25.9145 50.4096 25.844L52.9217 24.7239C53.0798 24.6533 53.2107 24.5403 53.297 24.3999C53.3832 24.2596 53.4207 24.0985 53.4045 23.9382L53.0842 20.8585L53.6696 20.599C55.473 19.7943 56.5919 18.4897 56.9031 16.8211C57.1497 15.5081 56.872 14.0051 56.1229 12.5929ZM52.0137 8.02506L54.5488 13.2479C54.5526 13.2565 54.5568 13.2649 54.5615 13.2732C54.8201 13.7521 55.0136 14.2583 55.1377 14.7803L49.4566 17.3042C49.4082 16.8981 49.3333 16.4794 49.2561 16.0502C48.8205 13.6518 48.3342 10.9539 52.0137 8.02506ZM33.3054 11.1037L36.5135 11.399H36.5826C37.8168 11.4222 39.6617 10.5553 40.9765 9.73365C42.0551 9.06181 43.8735 7.75084 43.9346 6.51896C43.9352 6.51229 43.9352 6.50559 43.9346 6.49892C43.9715 4.89474 44.089 2.95201 44.2192 2.50904C44.4174 2.22638 44.6905 1.8467 44.8069 1.79396C44.9233 1.74123 45.4983 1.80029 45.844 1.83615C47.6705 2.02916 50.193 4.39904 50.8256 5.5708L51.2865 6.52002C46.4386 10.1355 47.0782 13.6919 47.5518 16.3065C47.6727 16.8813 47.7497 17.4631 47.7823 18.0478L41.6748 20.7625C41.1966 20 40.2171 19.4821 39.7931 19.2617C38.537 18.5994 36.8465 17.9897 35.0569 17.3453C33.3768 16.7399 31.6391 16.1145 30.3934 15.4722C29.2918 14.9048 28.9276 14.5072 28.8135 14.2783L32.2003 11.0024L33.2985 11.1079L33.3054 11.1037ZM40.1042 21.4597L36.926 22.8708C36.6449 22.3857 36.1102 21.9269 35.322 21.4945C34.2284 20.8965 32.7557 20.3776 31.1966 19.827C29.7435 19.3144 28.2408 18.785 27.1726 18.2176C26.4386 17.8273 25.9834 17.455 25.8543 17.146L27.5955 15.4585C28.7213 16.7558 31.4236 17.7303 34.4312 18.8135C36.0837 19.4083 37.7914 20.0242 38.9369 20.6275C39.6248 20.9956 39.959 21.2751 40.1007 21.4597H40.1042ZM27.4031 3.63545C27.4946 3.4551 27.6309 3.29685 27.8012 3.17334C27.9715 3.04982 28.171 2.96446 28.3837 2.92409C28.5964 2.88371 28.8165 2.88943 29.0264 2.94079C29.2363 2.99216 29.4302 3.08774 29.5925 3.2199C31.7393 4.96857 33.1245 7.75505 32.7972 9.46259L27.1634 8.94685H27.0931C26.333 8.92023 25.5723 8.97831 24.8276 9.11982L27.4031 3.63545ZM13.8653 24.4645L13.893 24.4244C13.931 24.3706 13.969 24.3189 14.0082 24.2578L14.0716 24.1681L14.1672 24.0299L14.2226 23.9498L14.3724 23.7336L14.43 23.6502L14.5452 23.4878C14.566 23.4572 14.5878 23.4267 14.6086 23.395L14.7688 23.164L14.8218 23.086L14.9508 22.9004C14.9716 22.8698 14.9923 22.8392 15.0142 22.8086C15.0661 22.7316 15.1202 22.6546 15.1744 22.5766L15.1951 22.5449L15.3876 22.2665L15.4475 22.179L15.5627 22.0049L15.6503 21.8773L15.8416 21.5999L16.0456 21.3025C16.0594 21.2825 16.0744 21.2624 16.0882 21.2413L16.2749 20.9692C16.2853 20.9555 16.2945 20.9408 16.3037 20.927C16.3751 20.8216 16.4466 20.7161 16.5192 20.6106L16.5468 20.5695L16.5883 20.5094L18.2707 20.7203C18.3089 20.7253 18.3474 20.7278 18.386 20.7277C18.6048 20.7271 18.8151 20.6506 18.9747 20.5136C19.1343 20.3766 19.2311 20.1894 19.2458 19.9896C19.2604 19.7898 19.1917 19.5923 19.0535 19.4371C18.9153 19.2819 18.7179 19.1804 18.5012 19.1531L17.5955 19.0413C17.7153 18.8655 17.8355 18.6897 17.9562 18.5139L17.9677 18.4949C18.1204 18.2719 18.274 18.0493 18.4286 17.8273L20.1203 18.0383C20.1584 18.0432 20.1969 18.0457 20.2355 18.0456C20.4543 18.0451 20.6647 17.9685 20.8242 17.8316C20.9838 17.6946 21.0806 17.5073 21.0953 17.3075C21.1099 17.1077 21.0412 16.9103 20.903 16.755C20.7648 16.5998 20.5675 16.4983 20.3507 16.471L19.4346 16.3571L20.3323 15.0429L22.0239 15.2539C22.0621 15.2589 22.1006 15.2613 22.1392 15.2613C22.3579 15.2607 22.5683 15.1842 22.7279 15.0472C22.8875 14.9102 22.9843 14.7229 22.9989 14.5231C23.0136 14.3233 22.9449 14.1259 22.8067 13.9707C22.6685 13.8154 22.4711 13.7139 22.2544 13.6866L21.3417 13.5664C21.3659 13.5326 21.3878 13.501 21.4097 13.4683L21.4996 13.3375L21.5734 13.232C21.8684 12.8049 22.0539 12.5402 22.1265 12.4421C22.5552 12.0268 23.0307 11.6542 23.545 11.3304C23.6154 11.3004 23.6813 11.2621 23.7409 11.2165C23.9484 11.0994 24.1648 10.9961 24.3885 10.9075C24.4853 10.8695 24.5821 10.8344 24.6789 10.802C25.3565 10.5827 26.0514 10.5183 26.8522 10.5215H27.0251L30.0304 10.7989L24.3413 16.3086L18.9806 21.4934C18.3042 22.1631 16.1931 24.0848 13.7478 24.6301C13.7812 24.5752 13.8204 24.5204 13.8653 24.4645ZM12.4065 26.3555H12.4814C16.0317 26.3555 19.082 23.7241 20.2447 22.5713L24.6236 18.3378C25.6607 19.5665 28.068 20.4166 30.5789 21.3025C32.0009 21.8045 33.4725 22.3235 34.4381 22.8519C34.6398 22.9573 35.1895 23.2811 35.3681 23.5638L21.0364 29.9288C20.2516 29.2295 18.522 28.4881 14.3124 28.1443C12.9296 28.0314 11.5987 27.9882 10.5719 27.9734L12.4065 26.3555ZM2.61154 37.2294C2.48574 36.8637 2.40836 36.4855 2.38107 36.1029C2.33267 35.4701 2.45598 35.178 2.50668 35.12L8.79271 29.5565C10.5865 29.5286 12.3806 29.5831 14.1684 29.72C17.0493 29.9562 18.5173 30.3739 19.2618 30.7209L15.8243 32.2417L2.61154 37.2294ZM11.4224 41.1465L9.66734 39.5117L12.5862 38.437L12.8063 40.5242L11.4224 41.1465ZM17.834 38.3104L16.3544 37.0553L18.099 36.413L18.1544 36.3909L19.1419 35.9521L19.2894 37.6607L17.834 38.3104ZM24.2975 35.6684L22.7614 34.3437L25.527 33.114L25.7264 35.0314L24.2975 35.6684ZM43.6269 27.0843L42.0897 25.7512L44.8622 24.5193L45.0627 26.4441L43.6269 27.0843ZM50.1953 24.185L48.6419 22.8381L51.4317 21.5999L51.6334 23.5448L50.1953 24.185ZM55.2022 16.5575C54.9856 17.7176 54.217 18.5994 52.916 19.1794L45.3958 22.5207C45.2729 22.5473 45.158 22.5985 45.0593 22.6704L40.3347 24.7714C40.2389 24.7958 40.1487 24.8358 40.0685 24.8895L26.0998 31.0974C25.9549 31.1239 25.8199 31.1842 25.708 31.2725L21.0421 33.346C20.9215 33.3728 20.8087 33.4232 20.7114 33.4936L17.4203 34.9554L14.6017 35.9933C14.4776 36.012 14.3595 36.0556 14.256 36.1209L8.03332 38.4117C7.873 38.4268 7.72052 38.4827 7.59312 38.573L5.66756 39.2818L5.61109 39.305C5.39445 39.401 4.85285 39.2818 4.13148 38.7966C3.99551 38.7045 3.86644 38.6099 3.7443 38.5129L16.5157 33.6951L16.5641 33.6751L21.1551 31.6353L41.3718 22.6546L41.3925 22.6462L48.9749 19.2775C48.9911 19.2701 49.0084 19.2638 49.0245 19.2554L55.2068 16.5132C55.2057 16.5195 55.2034 16.5406 55.1999 16.5575H55.2022Z" fill="#FFC727"/>
</svg>
