<svg width="37" height="36" viewBox="0 0 37 36" fill="none" xmlns="http://www.w3.org/2000/svg">
<path fill-rule="evenodd" clip-rule="evenodd" d="M11.5086 1.599C13.317 1.518 13.8936 1.5 18.5001 1.5C23.1066 1.5 23.6832 1.5195 25.49 1.599C27.2968 1.6785 28.5302 1.959 29.6093 2.3655C30.7394 2.781 31.7646 3.4305 32.6125 4.2705C33.4758 5.094 34.1418 6.09 34.5673 7.191C34.9867 8.241 35.2734 9.441 35.3567 11.196C35.4399 12.9585 35.4584 13.5195 35.4584 18C35.4584 22.482 35.4384 23.043 35.3567 24.8025C35.275 26.5575 34.9867 27.7575 34.5673 28.8075C34.1418 29.9086 33.4747 30.9063 32.6125 31.731C31.7646 32.571 30.7394 33.219 29.6093 33.633C28.5302 34.041 27.2968 34.32 25.4931 34.401C23.6832 34.482 23.1066 34.5 18.5001 34.5C13.8936 34.5 13.317 34.4805 11.5086 34.401C9.70487 34.3215 8.47154 34.041 7.39237 33.633C6.26067 33.2189 5.2353 32.5699 4.38766 31.731C3.52492 30.907 2.85728 29.9098 2.43129 28.809C2.0135 27.759 1.72675 26.559 1.6435 24.804C1.56025 23.0415 1.54175 22.4805 1.54175 18C1.54175 13.518 1.56179 12.957 1.6435 11.199C1.72521 9.441 2.0135 8.241 2.43129 7.191C2.8579 6.09012 3.52606 5.09297 4.38921 4.269C5.23564 3.42975 6.25998 2.78017 7.39083 2.3655C8.47 1.959 9.70333 1.68 11.5071 1.599H11.5086ZM25.3528 4.569C23.5645 4.4895 23.028 4.473 18.5001 4.473C13.9722 4.473 13.4357 4.4895 11.6474 4.569C9.99317 4.6425 9.09592 4.911 8.49775 5.1375C7.70687 5.4375 7.14108 5.793 6.54754 6.3705C5.9849 6.90308 5.5519 7.55142 5.28029 8.268C5.0475 8.85 4.77154 9.723 4.696 11.3325C4.61429 13.0725 4.59733 13.5945 4.59733 18C4.59733 22.4055 4.61429 22.9275 4.696 24.6675C4.77154 26.277 5.0475 27.15 5.28029 27.732C5.55162 28.4475 5.98483 29.097 6.54754 29.6295C7.09483 30.177 7.76237 30.5985 8.49775 30.8625C9.09592 31.089 9.99317 31.3575 11.6474 31.431C13.4357 31.5105 13.9707 31.527 18.5001 31.527C23.0295 31.527 23.5645 31.5105 25.3528 31.431C27.007 31.3575 27.9043 31.089 28.5024 30.8625C29.2933 30.5625 29.8591 30.207 30.4526 29.6295C31.0153 29.097 31.4485 28.4475 31.7199 27.732C31.9527 27.15 32.2286 26.277 32.3042 24.6675C32.3859 22.9275 32.4028 22.4055 32.4028 18C32.4028 13.5945 32.3859 13.0725 32.3042 11.3325C32.2286 9.723 31.9527 8.85 31.7199 8.268C31.4115 7.4985 31.0462 6.948 30.4526 6.3705C29.9052 5.82311 29.2389 5.40182 28.5024 5.1375C27.9043 4.911 27.007 4.6425 25.3528 4.569ZM16.334 23.0865C17.5437 23.5764 18.8907 23.6426 20.1449 23.2736C21.3992 22.9046 22.4828 22.1234 23.2108 21.0634C23.9388 20.0034 24.266 18.7303 24.1365 17.4617C24.007 16.193 23.4288 15.0075 22.5007 14.1075C21.9091 13.5322 21.1937 13.0917 20.4061 12.8177C19.6185 12.5437 18.7782 12.443 17.9458 12.5229C17.1134 12.6028 16.3096 12.8613 15.5922 13.2797C14.8748 13.6981 14.2616 14.2661 13.7969 14.9428C13.3322 15.6194 13.0275 16.3879 12.9046 17.1929C12.7818 17.9979 12.8439 18.8194 13.0866 19.5983C13.3292 20.3771 13.7463 21.0939 14.3079 21.6971C14.8694 22.3002 15.5614 22.7748 16.334 23.0865ZM12.3365 12.003C13.1459 11.2155 14.1068 10.5908 15.1644 10.1645C16.2219 9.73833 17.3554 9.51896 18.5001 9.51896C19.6448 9.51896 20.7782 9.73833 21.8358 10.1645C22.8933 10.5908 23.8543 11.2155 24.6637 12.003C25.4731 12.7905 26.1151 13.7255 26.5532 14.7544C26.9912 15.7834 27.2167 16.8863 27.2167 18C27.2167 19.1137 26.9912 20.2166 26.5532 21.2456C26.1151 22.2745 25.4731 23.2095 24.6637 23.997C23.029 25.5875 20.8119 26.481 18.5001 26.481C16.1883 26.481 13.9712 25.5875 12.3365 23.997C10.7018 22.4065 9.78346 20.2493 9.78346 18C9.78346 15.7507 10.7018 13.5935 12.3365 12.003ZM29.1499 10.782C29.3505 10.5979 29.5111 10.3765 29.6221 10.131C29.7332 9.8854 29.7925 9.62065 29.7965 9.35239C29.8005 9.08414 29.7492 8.81782 29.6455 8.56921C29.5419 8.32061 29.388 8.09477 29.193 7.90506C28.998 7.71535 28.7659 7.56564 28.5104 7.46478C28.2549 7.36392 27.9812 7.31396 27.7055 7.31787C27.4298 7.32178 27.1577 7.37948 26.9053 7.48754C26.6529 7.59561 26.4254 7.75184 26.2362 7.947C25.8682 8.32654 25.6667 8.83068 25.6745 9.35239C25.6824 9.87411 25.8988 10.3723 26.278 10.7413C26.6572 11.1102 27.1693 11.3208 27.7055 11.3284C28.2417 11.3361 28.7598 11.14 29.1499 10.782Z" fill="white"/>
</svg>
