<svg width="65" height="101" viewBox="0 0 65 101" fill="none" xmlns="http://www.w3.org/2000/svg">
<path d="M64.6582 98.4739L59.925 88.513C59.8022 88.2536 59.6053 88.0338 59.3578 87.8799C59.1102 87.7259 58.8224 87.6442 58.5285 87.6444H53.4651L47.8931 47.0954L63.4155 22.9302C63.8018 22.3295 64.0583 21.6587 64.1694 20.9587C64.2804 20.2586 64.2437 19.544 64.0615 18.8581C63.8773 18.1566 63.5477 17.499 63.0928 16.9256C62.6379 16.3521 62.0673 15.875 61.4159 15.5232L61.3483 15.4874L50.3581 10.1363C50.2597 9.98096 50.1531 9.82756 50.0608 9.67615C47.472 5.8275 43.6288 2.93384 39.1465 1.45838C37.0044 0.759866 34.7595 0.404599 32.4999 0.406502C31.8847 0.406502 31.2695 0.434392 30.6542 0.486189C29.3012 0.600324 27.9631 0.843887 26.6593 1.21334C26.3859 1.28904 26.1172 1.37072 25.8533 1.45838C22.0038 2.71858 18.6135 5.03695 16.0937 8.13221C16.0466 8.18218 16.0035 8.23545 15.9645 8.29158C15.5543 8.80955 15.1606 9.34545 14.8017 9.88533L14.6643 9.94709L3.72747 15.5073L3.68851 15.5272C3.03317 15.8767 2.4585 16.3529 1.99997 16.9265C1.54144 17.5 1.20877 18.1588 1.02249 18.8621C0.837027 19.549 0.798115 20.2654 0.908149 20.9674C1.01818 21.6693 1.27484 22.342 1.66233 22.9441L17.2093 47.46L11.8055 87.6444H6.47347C6.17953 87.6442 5.8917 87.7259 5.64415 87.8799C5.3966 88.0338 5.19972 88.2536 5.07689 88.513L0.343682 98.4739C0.235724 98.7014 0.188374 98.9516 0.205984 99.2015C0.223594 99.4514 0.305601 99.693 0.444462 99.9041C0.583324 100.115 0.774584 100.289 1.00066 100.409C1.22673 100.53 1.48035 100.593 1.73821 100.594H63.2617C63.5197 100.594 63.7736 100.53 63.9999 100.41C64.2263 100.29 64.4178 100.116 64.5569 99.9049C64.696 99.6938 64.7782 99.4521 64.7959 99.202C64.8136 98.9519 64.7663 98.7016 64.6582 98.4739ZM48.9821 14.0291C48.9887 14.0454 48.9963 14.0613 49.0046 14.0769C49.0497 14.1825 49.0928 14.2901 49.1379 14.3956L49.2507 14.6706C49.2917 14.7781 49.3307 14.8857 49.3717 14.9953C49.4127 15.1049 49.4414 15.1806 49.4742 15.2722C49.5071 15.3638 49.5481 15.4913 49.5829 15.6009C49.6178 15.7105 49.6465 15.7882 49.6752 15.8818C49.7039 15.9754 49.7408 16.1049 49.7716 16.2145C49.8024 16.3241 49.827 16.4038 49.8536 16.4994C49.8803 16.595 49.909 16.7225 49.9377 16.8361C49.9664 16.9496 49.9849 17.0353 50.0075 17.1229C50.03 17.2106 50.0546 17.3461 50.0792 17.4596C50.1038 17.5732 50.1202 17.6588 50.1387 17.7525C50.1572 17.8461 50.1777 17.9736 50.1961 18.0852C50.2146 18.1967 50.233 18.2844 50.2474 18.388C50.2617 18.4916 50.2782 18.6051 50.2925 18.7147C50.3069 18.8243 50.3171 18.9 50.3274 18.9936L47.8172 17.0014L48.9821 14.0291ZM50.3417 22.8624C50.0373 25.7136 49.02 28.4493 47.3783 30.8312L41.2875 30.7176L37.9694 26.3946L39.8151 20.8543L45.6557 19.1291L50.3417 22.8624ZM44.8231 33.7657C43.5592 34.9314 42.1288 35.9137 40.5759 36.6822L41.6136 33.7079L44.8231 33.7657ZM29.4422 28.1696H35.5002L38.802 32.4688L36.8599 38.0469C33.7696 38.8158 30.5228 38.7587 27.4632 37.8815L25.7467 32.2496L29.4422 28.1696ZM28.1318 20.169L32.4692 17.0811L36.8066 20.177L35.1393 25.1993H29.7908L28.1318 20.169ZM47.0154 10.6563L44.8169 16.2583L38.9394 17.9955L34.0175 14.4813L34.0442 8.09435L38.9824 4.57814C42.2042 5.81477 44.9924 7.92451 47.0154 10.6563ZM30.1169 3.56013C30.2174 3.54619 30.322 3.53224 30.4163 3.52228C30.5107 3.51232 30.6727 3.49638 30.7998 3.48443L31.1157 3.45654C31.2367 3.44658 31.3597 3.4406 31.4807 3.43463C31.6017 3.42865 31.7022 3.42068 31.815 3.4167H32.1882C32.3933 3.4167 32.5984 3.4167 32.8034 3.4167H33.1767C33.2895 3.4167 33.4002 3.42865 33.511 3.43463C33.6217 3.4406 33.755 3.44658 33.876 3.45654L34.1918 3.48443C34.319 3.49638 34.4482 3.50635 34.5753 3.52228C34.7025 3.53822 34.7804 3.54619 34.8727 3.56013L35.1475 3.59799L32.4999 5.47662L29.8339 3.58603L30.1169 3.56013ZM26.0277 4.58611L30.9495 8.09635L30.9229 14.4853L26.1425 17.886L20.6731 15.2961L18.9648 9.44107C20.873 7.28209 23.2985 5.61208 26.0277 4.57814V4.58611ZM16.7089 12.6485L17.6072 15.7185L14.9206 17.4935C15.2681 15.8018 15.8707 14.1692 16.7089 12.6485ZM19.5164 18.0712L25.0782 20.7129L26.9628 26.3946L23.3534 30.379L17.2339 30.2375C15.5428 27.5536 14.6223 24.4788 14.5679 21.3324L19.5164 18.0712ZM23.7985 36.3874C22.2772 35.5523 20.887 34.5098 19.6702 33.2915L22.8777 33.3653L23.7985 36.3874ZM4.28118 21.3743C4.11287 21.1142 4.00111 20.8235 3.9528 20.52C3.90448 20.2164 3.92062 19.9065 4.00023 19.6092C4.08389 19.3006 4.23094 19.0116 4.43253 18.7596C4.63412 18.5077 4.88608 18.2979 5.17327 18.1429L12.5868 14.3797C11.9161 16.3233 11.5463 18.3529 11.4897 20.4021C11.4897 20.422 11.4897 20.4419 11.4897 20.4599C11.4897 20.6378 11.4897 20.8151 11.4897 20.9918C11.4811 25.0964 12.7359 29.1099 15.0929 32.5166L15.1237 32.5624C17.6823 36.2399 21.3954 39.016 25.7098 40.4774C29.8417 41.8619 34.3181 41.9435 38.5005 40.7104H38.5231H38.5333C42.67 39.492 46.3222 37.0701 48.9971 33.7716C51.672 30.4731 53.2408 26.4568 53.4917 22.2648C53.5184 21.8365 53.5307 21.4121 53.5307 21.0017C53.5307 20.7487 53.5307 20.4977 53.5163 20.2447C53.4972 19.7626 53.4623 19.2825 53.4117 18.8044C53.4117 18.7486 53.3974 18.6928 53.3912 18.635C53.2276 17.231 52.9156 15.8471 52.4602 14.5052L59.9414 18.1489C60.2237 18.305 60.471 18.5145 60.6686 18.765C60.8662 19.0154 61.0101 19.3018 61.0919 19.6072C61.1701 19.9025 61.1857 20.2102 61.1377 20.5116C61.0898 20.8129 60.9793 21.1017 60.813 21.3603L35.8755 60.1622L33.5171 55.9786C33.3799 55.7333 33.1745 55.5304 32.9245 55.3928C32.6744 55.2553 32.3897 55.1887 32.1025 55.2005C31.8154 55.2123 31.5375 55.3021 31.3003 55.4598C31.0632 55.6174 30.8763 55.8365 30.7609 56.0921L28.8947 60.194L20.3162 46.6651C20.2391 46.3533 20.0608 46.074 19.8076 45.8682L4.28118 21.3743ZM36.6159 69.5115L37.5469 73.713L33.5458 71.8762C33.3199 71.7713 33.0709 71.7217 32.8207 71.7318C32.5704 71.7418 32.3265 71.8113 32.1103 71.934L28.2835 74.0955L28.8536 69.8243C28.885 69.584 28.8559 69.3399 28.7687 69.1129C28.6816 68.886 28.539 68.683 28.3533 68.5214L25.0576 65.6606L29.4053 64.8637L29.4689 64.8478C29.5001 64.8424 29.5309 64.8351 29.5612 64.8259C29.5995 64.8154 29.6371 64.8027 29.674 64.788L29.7457 64.7601C29.8071 64.7332 29.8667 64.7026 29.9242 64.6685C29.9734 64.6379 30.0205 64.6061 30.0657 64.5729L30.0964 64.547C30.1313 64.5191 30.1641 64.4892 30.1969 64.4593L30.2297 64.4254C30.2594 64.3957 30.2875 64.3644 30.3138 64.3318L30.3446 64.296C30.3729 64.2597 30.3989 64.2217 30.4225 64.1824L30.4409 64.1565C30.4712 64.1079 30.498 64.0573 30.5209 64.0051L32.3154 60.0626L34.44 63.8477C34.4687 63.8978 34.5002 63.9463 34.5343 63.9931L34.5466 64.0091C34.5753 64.0469 34.6081 64.0848 34.643 64.1226L34.6758 64.1585L34.764 64.2402L34.8091 64.278L34.8993 64.3438L34.9506 64.3776L34.9711 64.3916L35.0142 64.4135C35.0527 64.436 35.0924 64.4566 35.1331 64.4753L35.2111 64.5071L35.3177 64.545L35.4059 64.5709L35.5105 64.5908L35.6028 64.6067H35.6274L40.0345 65.043L36.9993 68.1708C36.8285 68.3474 36.7044 68.5617 36.6376 68.7953C36.5708 69.0288 36.5634 69.2746 36.6159 69.5115ZM19.7687 51.4962L26.6367 62.3297L21.4257 63.2859C21.1418 63.3365 20.8783 63.4636 20.6653 63.6528C20.4523 63.842 20.2984 64.0856 20.2212 64.3558C20.144 64.6259 20.1465 64.9117 20.2286 65.1805C20.3107 65.4493 20.469 65.6902 20.6854 65.8758L25.6995 70.2227L24.8423 76.7093C24.8061 76.9859 24.8503 77.2668 24.9699 77.5203C25.0895 77.7738 25.2797 77.9897 25.5191 78.1437C25.77 78.3076 26.0657 78.395 26.3681 78.3947C26.6394 78.3958 26.9062 78.327 27.1412 78.1954L32.9634 74.9083L39.0501 77.6974C39.3096 77.8159 39.5981 77.8616 39.8829 77.8295C40.1677 77.7974 40.4377 77.6887 40.6623 77.5155C40.887 77.3424 41.0574 77.1119 41.1545 76.8497C41.2515 76.5876 41.2713 76.3044 41.2117 76.0319L39.7925 69.637L44.4109 64.8777C44.6074 64.6747 44.7416 64.4223 44.7983 64.1492C44.855 63.876 44.8319 63.5928 44.7317 63.3317C44.6314 63.0706 44.458 62.8419 44.231 62.6716C44.0039 62.5012 43.7324 62.3959 43.447 62.3675L38.4 61.8655L45.3378 51.0638L50.3622 87.6324H14.9063L19.7687 51.4962ZM4.14173 97.6053L7.45579 90.6327H57.5441L60.8581 97.6053H4.14173Z" fill="#000654"/>
</svg>
