<svg width="33" height="33" viewBox="0 0 33 33" fill="none" xmlns="http://www.w3.org/2000/svg">
<path d="M24.6303 6.9155L16.4999 15.0459L8.36952 6.9155C8.17398 6.73656 7.91693 6.63996 7.65193 6.64583C7.38693 6.65171 7.13441 6.75959 6.94698 6.94702C6.75955 7.13445 6.65166 7.38697 6.64579 7.65197C6.63992 7.91697 6.73652 8.17402 6.91546 8.36957L15.0417 16.4999L6.9134 24.6283C6.81409 24.7229 6.73471 24.8364 6.67992 24.9622C6.62512 25.0879 6.59602 25.2234 6.59432 25.3606C6.59262 25.4977 6.61836 25.6338 6.67002 25.7609C6.72169 25.888 6.79823 26.0035 6.89516 26.1005C6.99209 26.1976 7.10745 26.2743 7.23445 26.3262C7.36146 26.378 7.49754 26.4039 7.63471 26.4024C7.77188 26.4009 7.90737 26.372 8.0332 26.3174C8.15904 26.2628 8.27268 26.1835 8.36746 26.0844L16.4999 17.9561L24.6303 26.0864C24.8258 26.2654 25.0829 26.362 25.3479 26.3561C25.6129 26.3502 25.8654 26.2424 26.0528 26.0549C26.2402 25.8675 26.3481 25.615 26.354 25.35C26.3599 25.085 26.2633 24.8279 26.0843 24.6324L17.954 16.502L26.0843 8.36957C26.1836 8.27493 26.263 8.1614 26.3178 8.03564C26.3726 7.90988 26.4017 7.77444 26.4034 7.63727C26.4051 7.5001 26.3794 7.36398 26.3277 7.2369C26.276 7.10983 26.1995 6.99436 26.1026 6.89729C26.0056 6.80023 25.8903 6.72352 25.7633 6.67167C25.6363 6.61983 25.5002 6.59389 25.363 6.5954C25.2259 6.5969 25.0904 6.62581 24.9645 6.68043C24.8387 6.73505 24.7251 6.81427 24.6303 6.91344V6.9155Z" fill="white"/>
</svg>
