<svg width="68" height="90" viewBox="0 0 68 90" fill="none" xmlns="http://www.w3.org/2000/svg">
<path d="M58.8842 83.691L57.3222 85.871L54.7842 85.039V82.344L57.3222 81.51L58.8842 83.691ZM56.6602 77.382C58.3331 77.3839 59.9369 78.0493 61.1197 79.2323C62.3025 80.4152 62.9677 82.0191 62.9692 83.692C62.9677 85.3648 62.3024 86.9686 61.1196 88.1514C59.9368 89.3342 58.333 89.9994 56.6602 90.001C54.9877 89.9991 53.3841 89.3338 52.2015 88.151C51.0189 86.9682 50.3538 85.3646 50.3522 83.692C50.3541 82.0194 51.0192 80.4158 52.2017 79.2329C53.3843 78.05 54.9876 77.3844 56.6602 77.382ZM51.2742 83.691C51.2742 84.206 51.3702 84.695 51.5042 85.168L53.7492 85.723L53.5792 88.1C54.4431 88.7033 55.4659 89.0379 56.5192 89.062L57.7352 87.109L59.8832 87.981C60.7172 87.3543 61.3504 86.498 61.7052 85.517L60.1662 83.692L61.7052 81.866C61.3428 80.8606 60.6886 79.9863 59.8262 79.355L57.5602 80.274L56.3552 78.337C55.358 78.3883 54.3948 78.717 53.5742 79.286L53.7492 81.725L51.4812 82.286C51.3515 82.7434 51.2819 83.2157 51.2742 83.691ZM2.87524 85.484C3.66024 84.849 5.17424 83.048 5.98824 82.08C6.27724 81.735 6.48424 81.491 6.55224 81.423C6.81124 81.165 8.85624 78.777 9.32224 77.767C9.60724 77.151 10.4352 75.7 11.2362 74.296C11.9012 73.131 12.5292 72.03 12.7922 71.504C13.4002 70.288 15.2232 67.48 16.9742 66.558C18.4222 65.795 20.8882 62.734 21.4372 61.909C21.9412 61.154 24.0182 57.652 24.4162 56.38C24.6502 55.627 25.4292 54.422 26.2542 53.147C26.9842 52.016 27.7382 50.848 27.9682 50.199C28.1532 49.675 28.5542 48.777 29.0192 47.738C29.6652 46.293 30.7482 43.873 30.7302 43.406C30.6562 42.681 31.4052 41.763 32.3922 40.639C32.6232 40.374 32.9122 40.046 32.9572 39.96C33.0962 39.615 33.1912 37.712 33.2612 36.32C33.3272 34.988 33.7422 32.535 33.9342 31.459C32.9812 31.346 30.9912 31.093 29.9062 30.834C29.7374 30.7885 29.564 30.7623 29.3892 30.756L29.2832 30.772C29.1868 30.823 29.081 30.8536 28.9722 30.862C28.6942 30.862 28.5692 30.72 28.2332 30.342C27.1842 29.16 28.2442 26.132 29.5862 23.693C31.0212 21.083 33.7982 16.34 35.1092 15.123C36.3982 13.928 39.4482 12.815 40.8802 12.394C41.6232 12.175 42.3102 12.164 42.8602 12.154C43.2212 12.147 43.5322 12.142 43.7842 12.087C43.9041 12.0631 44.0184 12.017 44.1212 11.951C44.7632 11.523 45.5452 10.439 45.3472 9.513C45.2582 9.099 45.1202 8.706 44.9882 8.326C44.7462 7.634 44.5172 6.98 44.5782 6.243L44.5882 6.121C44.8672 2.505 46.4302 0.49 49.2332 0.133C49.8667 0.0476531 50.505 0.00322782 51.1442 0C54.0382 0 55.3102 1.064 56.0932 1.992C57.2162 3.32 57.3792 6.919 56.6852 8.739C56.1502 10.146 56.1802 10.783 56.2032 11.247C56.2082 11.344 56.2122 11.433 56.2122 11.518C56.2122 12.224 55.7722 13.008 55.1632 13.104C55.0862 13.271 54.9782 13.682 54.8732 14.082L54.7602 14.518C54.6522 14.922 54.5802 15.21 54.5312 15.412C55.2072 15.548 56.4142 15.908 57.7712 16.853C59.1692 17.826 59.7452 19.636 60.2532 21.234C60.5032 22.023 60.7402 22.767 61.0362 23.251C61.2082 23.532 61.3992 23.834 61.6022 24.152C62.5042 25.568 63.6282 27.331 64.1292 29.119C64.4162 30.143 64.8772 31.444 65.2832 32.591C65.7272 33.849 66.1122 34.935 66.2482 35.567C66.4712 36.608 66.9822 39.353 67.0842 40.496C67.0882 40.529 67.0962 40.561 67.0932 40.596C67.1003 40.683 67.1042 40.762 67.1042 40.824C67.1042 40.997 67.1462 41.237 67.1902 41.512C67.3462 42.473 67.5812 43.926 66.6882 44.739C65.5902 45.736 63.9862 46.919 62.9592 46.715C61.7872 46.481 60.9652 44.851 60.8732 43.476C60.8122 42.563 61.2342 42.199 61.5142 41.957C61.7172 41.781 61.8012 41.709 61.8012 41.415L61.8022 41.177C61.8072 40.043 61.8172 38.145 60.9442 36.69C59.9402 35.018 59.1732 33.407 58.3602 31.701L58.3032 31.581C57.7092 30.337 56.7672 28.69 56.2782 27.853C55.5712 28.57 54.2062 30.132 53.7472 31.914C53.0342 34.676 52.2552 38.387 52.4082 39.757C52.4682 40.297 52.5512 40.704 52.6142 41.021C52.7382 41.638 52.8372 42.125 52.4342 42.529C52.2446 42.7114 52.0187 42.8518 51.7712 42.941C51.9222 43.347 52.2412 44.008 52.8832 44.767C53.2202 45.164 53.6512 45.642 54.1132 46.154C55.3032 47.473 56.6532 48.967 57.2652 50.037L57.6392 50.679C58.4762 52.103 59.4252 53.717 59.3792 54.946C59.3342 56.193 58.7072 59.471 57.0562 61.648C56.2262 62.741 56.1202 63.512 56.0072 64.329C55.9232 64.94 55.8372 65.571 55.4602 66.304C54.6712 67.835 53.5772 69.276 51.9232 71.456L50.8302 72.894C49.2262 74.996 47.7112 76.982 47.2212 78.173C46.1362 80.806 45.5162 81.592 44.9622 81.743L44.9642 81.92C44.9762 82.374 44.9932 83.059 44.5442 83.68C44.3312 83.974 44.1402 84.398 43.9562 84.809C43.5652 85.683 43.1592 86.585 42.3342 86.669C41.4892 86.763 41.0172 86.332 40.3332 85.731C40.1082 85.532 39.8482 85.301 39.5242 85.043C39.1082 84.709 38.7992 84.551 38.5512 84.422C37.9922 84.134 37.6582 83.89 37.7342 82.927C37.8312 81.683 38.8112 80.507 39.7062 79.437L39.7802 79.348C40.5832 78.386 41.4942 77.295 42.6242 75.52C43.6362 73.931 45.1642 71.53 45.1642 70.467C45.1642 69.225 45.7572 66.583 46.2882 64.988C46.5652 64.156 47.4132 63.011 48.2312 61.904C48.3802 61.702 48.5512 61.472 48.7192 61.238C48.5312 61.3 48.3292 61.338 48.1102 61.338C46.8992 61.338 46.4812 60.222 46.1772 59.405C46.0392 59.037 45.8972 58.656 45.7322 58.49C45.1182 57.877 42.8312 56.393 42.1452 56.05C41.9522 55.953 41.8232 55.851 41.7292 55.777C41.7092 55.761 41.6912 55.747 41.6982 55.739C41.5552 55.776 41.1902 55.986 40.6142 56.36C38.7352 57.582 37.4122 59.588 37.0522 60.174C36.8412 60.516 36.6732 60.86 36.5232 61.166C36.1442 61.937 35.8162 62.604 35.1082 62.604C34.6042 62.604 32.7122 62.435 32.0192 62.372C31.2012 63.301 27.7152 67.23 26.5662 68.226C23.3602 71.004 22.3122 72.102 21.9992 72.533C21.3472 73.432 17.7612 77.466 16.2552 78.705C15.8982 79 15.5442 79.279 15.1972 79.555C14.1612 80.375 13.1812 81.151 12.2582 82.199C11.6272 82.915 11.2542 83.673 10.9262 84.342C10.6162 84.973 10.3242 85.568 9.87224 86.021C9.53724 86.357 9.20724 86.917 8.88824 87.458C8.44124 88.217 8.01924 88.933 7.48324 89.23C6.81724 89.599 5.72224 89.82 4.55324 89.82C4.33906 89.8198 4.12494 89.8124 3.91124 89.798C3.56863 89.7771 3.22514 89.7744 2.88224 89.79C2.23624 89.81 1.67224 89.849 1.06524 89.471C0.945308 89.3955 0.845691 89.2917 0.775092 89.1689C0.704494 89.046 0.665061 88.9076 0.660241 88.766C0.597241 87.695 2.15524 86.064 2.87524 85.484ZM53.0772 57.448C54.8782 56.323 57.4852 55.905 58.2852 55.798C58.3412 55.442 58.3782 55.125 58.3862 54.903C58.3882 54.877 58.3802 54.844 58.3802 54.817C57.6342 54.705 55.7972 54.549 54.3742 55.437C52.9782 56.309 51.0582 58.076 50.0602 59.028C50.0662 59.028 50.0702 59.025 50.0762 59.025C50.187 59.0263 50.2946 59.0617 50.3846 59.1263C50.4746 59.1908 50.5425 59.2815 50.5792 59.386C51.3132 58.727 52.1942 58.001 53.0772 57.448ZM54.9662 12.132C55.0422 12.087 55.2152 11.809 55.2152 11.518C55.2152 11.449 55.2112 11.375 55.2072 11.295C55.1832 10.774 55.1442 9.986 55.7552 8.385C56.0092 7.718 56.1122 6.789 56.0992 5.861C55.1932 5.59077 54.2744 5.36517 53.3462 5.185C51.5732 4.847 51.1522 5.692 50.5602 6.452C49.9682 7.212 49.7152 8.225 49.3782 9.154C49.0402 10.083 48.9542 9.408 48.6172 9.408C48.2802 9.408 48.6172 8.562 47.7722 7.466C47.1352 6.639 46.3082 7.537 45.9382 8.03C46.0782 8.428 46.2212 8.841 46.3202 9.303C46.6282 10.738 45.5422 12.199 44.6742 12.778L44.6582 12.786C44.7982 14.552 45.3582 17.404 46.3212 17.911C48.5502 19.085 50.2412 19.494 50.9622 19.031C51.5652 18.644 51.6462 17.595 51.6122 16.93C51.3324 16.8924 51.0581 16.8213 50.7952 16.718C50.5214 16.6094 50.2453 16.5064 49.9672 16.409C48.8212 16.004 48.3312 15.782 47.6542 14.353C47.6257 14.2928 47.6094 14.2276 47.6061 14.161C47.6028 14.0945 47.6127 14.028 47.6351 13.9652C47.6575 13.9025 47.6921 13.8448 47.7368 13.7954C47.7815 13.7461 47.8355 13.706 47.8957 13.6775C47.956 13.649 48.0212 13.6326 48.0877 13.6294C48.1543 13.6261 48.2208 13.6359 48.2835 13.6583C48.3462 13.6808 48.4039 13.7153 48.4533 13.7601C48.5027 13.8048 48.5427 13.8588 48.5712 13.919C49.0932 15.023 49.3262 15.107 50.3062 15.453C50.5542 15.541 50.8382 15.642 51.1712 15.775C51.5473 15.929 51.9558 15.987 52.3599 15.9439C52.7641 15.9008 53.1511 15.7579 53.4862 15.528C53.5402 15.26 53.6392 14.846 53.7962 14.258L53.9092 13.828C54.1982 12.726 54.3652 12.068 54.9662 12.132ZM63.2312 45.741C63.7582 45.741 64.8522 45.057 66.0182 43.998C66.5122 43.549 66.3362 42.462 66.2072 41.668L66.2052 41.651C65.8783 41.8537 65.507 41.9738 65.1232 42.001C64.7402 42.031 64.3222 42.041 63.9352 42.041C63.3942 42.041 62.9212 42.021 62.6842 42.01C62.5738 42.2835 62.3943 42.5236 62.1632 42.707C61.9392 42.9 61.8382 42.988 61.8662 43.405C61.9442 44.568 62.6362 45.631 63.2312 45.741ZM52.7822 31.66C53.4882 28.922 55.9592 26.768 56.0632 26.679C56.118 26.6311 56.1826 26.5959 56.2525 26.5759C56.3224 26.5558 56.3958 26.5514 56.4676 26.563C56.5394 26.5745 56.6078 26.6018 56.6679 26.6427C56.728 26.6837 56.7783 26.7374 56.8152 26.8C56.8772 26.904 58.3572 29.374 59.2022 31.149L59.2602 31.268C60.0622 32.953 60.8202 34.543 61.7982 36.173C62.7672 37.789 62.8022 39.813 62.7982 41.001C63.2322 41.021 64.2392 41.055 65.0462 40.991C65.6572 40.943 65.9652 40.588 66.0792 40.422C65.9632 39.352 65.5212 36.924 65.2742 35.774C65.1532 35.205 64.7602 34.096 64.3442 32.922C63.9332 31.76 63.4662 30.443 63.1702 29.386C62.7092 27.74 61.6292 26.046 60.7622 24.686C60.5668 24.3823 60.3744 24.0766 60.1852 23.769C59.8272 23.183 59.5732 22.382 59.3032 21.535C58.8422 20.089 58.3212 18.449 57.2012 17.67C55.7582 16.665 54.5222 16.409 54.0902 16.346C53.6496 16.6453 53.149 16.845 52.6232 16.931C52.6542 17.731 52.5592 19.209 51.5102 19.884C51.1452 20.118 50.6982 20.236 50.1612 20.236C49.0862 20.236 47.6582 19.762 45.8492 18.808C44.2682 17.977 43.7872 14.335 43.6682 13.101C43.4054 13.1291 43.1415 13.1451 42.8772 13.149C42.3352 13.158 41.7742 13.168 41.1602 13.348C39.6442 13.793 36.8472 14.868 35.7852 15.853C34.7242 16.836 32.2792 20.855 30.4572 24.172C28.7762 27.229 28.5802 29.234 28.9772 29.681L29.0762 29.792C29.3042 29.739 29.6602 29.752 30.1372 29.865C31.2602 30.133 33.5012 30.406 34.2892 30.498C34.3032 30.498 34.3152 30.492 34.3302 30.494C35.7302 30.673 39.8722 30.348 41.3162 30.227L41.1902 28.789C41.1192 27.974 41.1862 27.399 41.3102 26.996C36.6012 26.661 34.0132 26.253 33.6132 25.778C33.4332 25.564 33.4352 25.22 33.6492 25.041C33.8632 24.86 34.1572 24.864 34.3372 25.078C34.5792 25.228 35.6162 25.405 37.0122 25.573C37.4992 25.291 38.4642 24.607 38.6732 23.876C39.0132 22.691 39.6052 20.744 39.6052 20.744L40.5752 21.039C40.5752 21.039 39.9862 22.977 39.6482 24.155C39.4662 24.791 38.9902 25.33 38.5172 25.737C39.6542 25.85 40.9002 25.954 42.1042 26.035C42.4132 25.898 43.1892 25.628 44.4252 25.704C44.6962 25.72 44.9732 25.726 45.2382 25.732C46.2782 25.757 47.0982 25.777 47.4682 26.286C47.5852 26.447 47.6992 26.723 47.5822 27.114C47.5142 27.343 47.6252 27.908 47.7152 28.361C47.9012 29.299 48.1112 30.363 47.3422 30.79C46.5352 31.238 45.2442 31.272 44.8672 31.272C44.4592 31.272 44.0862 31.241 43.7872 31.181C43.3142 31.086 42.7852 30.791 42.3552 30.506L42.3672 30.643C42.3784 30.7765 42.3364 30.909 42.2505 31.0118C42.1646 31.1145 42.0416 31.1793 41.9082 31.192C41.7132 31.21 37.8872 31.556 35.5122 31.556C35.3022 31.556 35.1132 31.551 34.9282 31.545C34.7502 32.548 34.3182 35.068 34.2542 36.37C34.1692 38.076 34.1022 39.263 33.9832 39.92C34.7062 40.113 36.1032 40.522 37.1162 41.043C38.5362 41.773 40.7552 43.682 44.1402 43.774C46.5492 43.841 49.5602 43.174 50.7092 42.894C50.6888 42.8191 50.6718 42.7434 50.6582 42.667C50.6387 42.5363 50.6717 42.4032 50.75 42.2968C50.8284 42.1903 50.9457 42.1192 51.0762 42.099C51.0782 42.099 51.2462 42.073 51.4312 41.996C51.5592 41.944 51.6612 41.882 51.7222 41.828C51.7432 41.752 51.6852 41.464 51.6342 41.21C51.5399 40.7634 51.4668 40.3126 51.4152 39.859C51.2082 37.972 52.4092 33.106 52.7822 31.66ZM46.5992 26.867C46.3512 26.772 45.6762 26.757 45.2142 26.746C44.9372 26.739 44.6502 26.732 44.3642 26.716C43.5382 26.668 42.9622 26.804 42.6702 26.903L42.3962 29.285C42.7922 29.593 43.5072 30.093 43.9882 30.188C44.2182 30.235 44.5332 30.26 44.8692 30.26C45.6852 30.26 46.4632 30.12 46.8402 29.914C46.9572 29.749 46.8052 28.975 46.7222 28.558C46.5992 27.938 46.4822 27.352 46.5992 26.867ZM56.7822 51.178L56.6142 50.89C55.7812 50.691 54.3622 50.447 53.3462 50.786C51.8262 51.292 50.4752 52.222 48.7872 53.826C47.0982 55.43 47.7732 57.795 47.7732 57.795L49.1582 58.486C50.1002 57.577 52.2452 55.572 53.8372 54.578C55.3252 53.648 57.1082 53.656 58.1302 53.765C57.8152 52.941 57.2632 51.995 56.7822 51.178ZM47.2342 65.297C46.7392 66.785 46.1622 69.364 46.1622 70.46C46.1622 71.711 44.9402 73.731 43.4662 76.048C42.8971 76.947 42.283 77.8168 41.6262 78.654C42.1752 78.738 43.0112 78.898 43.6362 79.159C44.3002 79.435 44.5632 80.249 44.6672 80.781H44.6782C44.7902 80.729 45.2412 80.362 46.3022 77.786C46.8422 76.474 48.3962 74.437 50.0402 72.283L51.1322 70.847C52.7552 68.708 53.8272 67.295 54.5762 65.841C54.8752 65.259 54.9442 64.762 55.0222 64.187C55.1412 63.32 55.2762 62.339 56.2632 61.038C57.1862 59.822 57.7622 58.185 58.0782 56.853C57.0982 57.008 55.0282 57.422 53.6132 58.308C51.6702 59.523 49.5992 61.746 49.5782 61.768L49.5672 61.757C49.3912 62.0025 49.2132 62.2465 49.0332 62.489C48.2982 63.486 47.4622 64.614 47.2342 65.297ZM30.7832 62.26C27.7522 61.918 24.2682 60.754 23.4662 60.475C23.0835 61.1473 22.6834 61.8095 22.2662 62.461C21.9372 62.955 20.7322 64.513 19.4572 65.797C19.4932 66.592 19.7122 68.284 20.4322 69.005C21.2062 69.778 22.6272 69.936 23.1122 69.968C23.8492 69.282 24.7732 68.457 25.9172 67.466C26.8502 66.657 29.5332 63.666 30.7832 62.26ZM22.1732 70.864C21.4042 70.719 20.4062 70.411 19.7162 69.72C18.9552 68.96 18.6472 67.613 18.5222 66.67C18.3985 66.7752 18.2721 66.8772 18.1432 66.976C18.1612 67.7 18.3632 69.552 19.1232 70.314C19.8812 71.072 21.2572 71.237 21.7692 71.274C21.8882 71.148 22.0252 71.011 22.1732 70.864ZM11.5122 81.53C12.4952 80.417 13.5082 79.614 14.5802 78.765C14.9232 78.494 15.2692 78.219 15.6222 77.929C16.9342 76.847 20.0352 73.395 20.9952 72.198C20.2132 72.065 19.1372 71.76 18.4072 71.03C17.5402 70.163 17.2612 68.539 17.1702 67.614C15.7932 68.519 14.2462 70.823 13.6832 71.949C13.4082 72.5 12.7742 73.611 12.1022 74.789C11.3112 76.174 10.4952 77.606 10.2282 78.185C9.67824 79.373 7.48424 81.901 7.25724 82.126C7.19524 82.188 7.01124 82.41 6.75024 82.72C6.60624 82.892 6.43724 83.094 6.25624 83.306C6.60224 83.494 6.93924 83.92 7.32424 84.618C7.66524 85.235 8.77624 85.053 9.52024 84.847C9.69624 84.571 9.85724 84.251 10.0322 83.894C10.3892 83.169 10.7922 82.347 11.5122 81.53Z" fill="#000654"/>
</svg>
