<svg width="69" height="85" viewBox="0 0 69 85" fill="none" xmlns="http://www.w3.org/2000/svg">
<path d="M69 51.8895C69 60.671 65.3652 69.0928 58.8952 75.3022C52.4252 81.5116 43.65 85 34.5 85C25.35 85 16.5748 81.5116 10.1048 75.3022C3.63481 69.0928 0 60.671 0 51.8895V0H69V51.8895Z" fill="#407BFF"/>
<path opacity="0.3" d="M69 51.8895C69 60.671 65.3652 69.0928 58.8952 75.3022C52.4252 81.5116 43.65 85 34.5 85C25.35 85 16.5748 81.5116 10.1048 75.3022C3.63481 69.0928 0 60.671 0 51.8895V0H69V51.8895Z" fill="black"/>
<path opacity="0.6" d="M62.8209 17.5535H6.17908V51.8895C6.17908 59.0981 9.16288 66.0116 14.4741 71.1089C19.7853 76.2061 26.9888 79.0697 34.5 79.0697C42.0111 79.0697 49.2147 76.2061 54.5259 71.1089C59.8371 66.0116 62.8209 59.0981 62.8209 51.8895V17.5535Z" fill="white"/>
<path opacity="0.6" d="M59.237 5.43604H9.76295C7.78363 5.43604 6.17908 6.97598 6.17908 8.87558V10.2395C6.17908 12.1391 7.78363 13.6791 9.76295 13.6791H59.237C61.2163 13.6791 62.8209 12.1391 62.8209 10.2395V8.87558C62.8209 6.97598 61.2163 5.43604 59.237 5.43604Z" fill="white"/>
<path d="M43.8717 65.7861L41.3588 73.278L41.6884 73.5152L42.4093 73.278L43.0684 73.0408L44.0158 72.6454L44.5926 72.3885L45.6224 71.8745L46.0755 71.6373C46.5493 71.3408 47.023 71.0838 47.4967 70.7675H47.6203C48.0323 70.4512 48.4442 70.1942 48.8355 69.8977L49.2681 69.5222L50.092 68.8303C50.2602 68.689 50.4185 68.5371 50.5657 68.3757C50.8129 68.1582 51.1218 67.8617 51.2866 67.6838C51.4514 67.5059 51.5955 67.3478 51.7603 67.1698L52.234 66.6361L52.0075 65.9442L43.8717 65.7861Z" fill="#407BFF"/>
<path d="M24.943 65.6872H16.9102L16.7042 66.3198L17.178 66.893L17.6311 67.407L18.352 68.1186L18.8257 68.5535C19.0926 68.8124 19.3746 69.0566 19.6702 69.2849L20.0821 69.6209C20.4768 69.9536 20.8968 70.2575 21.3386 70.5302C21.7847 70.8498 22.2526 71.1403 22.7391 71.4C22.8899 71.4973 23.0483 71.5832 23.2129 71.657L24.2015 72.1709L24.7989 72.4477L25.7257 72.843L26.3848 73.0802L27.0851 73.3175L27.4559 73.0407L24.9636 65.6279L24.943 65.6872Z" fill="#407BFF"/>
<path d="M16.1891 40.543H15.4888L15.1181 41.0965C14.9739 41.2941 14.8915 41.4523 14.7267 41.7092C14.5619 41.9662 14.3766 42.3418 14.2736 42.5395L13.944 43.1325L13.5321 44.022L13.2849 44.5953C13.1407 44.9511 13.0172 45.2872 12.8936 45.643C12.8479 45.7975 12.7929 45.9493 12.7288 46.0976C12.564 46.6116 12.4198 47.1255 12.2963 47.6395C12.2864 47.7249 12.2864 47.8111 12.2963 47.8965C12.1933 48.3313 12.1109 48.7662 12.0285 49.2209C12.0184 49.4052 12.0184 49.59 12.0285 49.7744C11.9682 50.1146 11.9269 50.4578 11.9049 50.8023C11.9049 51.0197 11.9049 51.2174 11.9049 51.4546V52.265L12.2757 52.5418L18.8873 47.9558L16.1891 40.543Z" fill="#407BFF"/>
<path d="M27.9296 50.4466L30.463 57.8792H38.5782L41.0911 50.4466L34.5206 45.8606L27.9296 50.4466Z" fill="#407BFF"/>
<path d="M40.2672 31.3315L39.5463 31.1536L38.7018 30.9954L37.8368 30.8373C37.6172 30.8266 37.3972 30.8266 37.1777 30.8373C36.8373 30.777 36.4934 30.7374 36.1478 30.7187H35.9624C34.9885 30.6594 34.0116 30.6594 33.0377 30.7187H32.8523C32.5021 30.7187 32.152 30.7187 31.8019 30.8373H31.1633L30.2983 30.9954L29.4744 31.1536L28.7329 31.3315L28.0326 31.5094V31.8652L34.603 36.4512L41.1941 31.8652L41.0705 31.5094L40.2672 31.3315Z" fill="#407BFF"/>
<path d="M57.3832 51.2966C57.3832 51.0594 57.3832 50.9012 57.3832 50.585C57.3623 50.26 57.321 49.9365 57.2596 49.6163C57.2596 49.3989 57.2596 49.1814 57.2596 48.964C57.2596 48.7466 57.1154 48.2721 57.033 47.9361C56.9506 47.6 57.033 47.5408 57.033 47.3628C56.9095 46.8489 56.7653 46.3547 56.6005 45.8605C56.5888 45.8084 56.5888 45.7545 56.6005 45.7024C56.4357 45.228 56.2503 44.7536 56.0444 44.2791C56.0444 44.121 55.8796 43.9431 55.7972 43.7652C55.6633 43.4416 55.5121 43.1249 55.3441 42.8163C55.2496 42.6112 55.1394 42.4129 55.0145 42.2233L54.5408 41.3733L54.1494 40.7803L53.7375 40.1873H53.3256L50.5038 47.5803L57.0742 52.1664L57.3626 51.9687L57.3832 51.2966Z" fill="#407BFF"/>
<g opacity="0.9">
<path d="M56.5594 53.9849L49.6594 49.1616L42.8829 50.8418L40.1229 59.0256C40.1014 59.0969 40.0665 59.1639 40.02 59.2232L43.5832 64.0267H52.6665C52.8592 64.0299 53.0461 64.0906 53.2011 64.2005C53.3562 64.3103 53.4717 64.4638 53.5316 64.6395V64.7383C55.7335 61.5771 57.0332 57.917 57.3009 54.1232C57.1743 54.1541 57.0422 54.1577 56.914 54.1337C56.7858 54.1098 56.6647 54.059 56.5594 53.9849Z" fill="white"/>
<path d="M28.7741 58.6105L26.1583 50.8814L19.5054 49.4779L12.5848 54.3209C12.4276 54.4254 12.2405 54.4806 12.0493 54.4791H11.7404C12.0473 58.1121 13.301 61.6128 15.386 64.6593C15.4478 64.4823 15.5673 64.3291 15.7268 64.2224C15.8863 64.1156 16.0773 64.0608 16.2717 64.0663H24.7783L28.7329 58.7686L28.7741 58.6105Z" fill="white"/>
<path d="M48.5883 47.5802L51.4719 39.0012C51.5154 38.8662 51.5926 38.7435 51.6967 38.6436C51.8007 38.5438 51.9286 38.4697 52.0692 38.4279C49.6524 35.6729 46.5691 33.5282 43.0889 32.1814C43.0884 32.3188 43.0524 32.4539 42.9841 32.5747C42.9158 32.6954 42.8173 32.798 42.6975 32.8732L35.4886 37.9139V44.3581L42.368 49.1814L48.5883 47.5802Z" fill="white"/>
<path d="M17.6311 39.3768L20.4941 47.8965L26.6732 49.2012L33.6762 44.2988V38.0128L26.3437 32.893C26.2301 32.8133 26.1375 32.7092 26.0732 32.5891C26.0088 32.469 25.9745 32.3362 25.9729 32.2012C22.3619 33.6036 19.1801 35.8614 16.7249 38.7639C16.9246 38.7587 17.1207 38.8156 17.284 38.926C17.4473 39.0364 17.569 39.1945 17.6311 39.3768Z" fill="white"/>
<path d="M42.1621 65.1337L38.0427 59.6581H30.1953L26.4878 64.5604L29.4332 73.179C29.4772 73.3155 29.487 73.46 29.462 73.6008C29.4369 73.7416 29.3777 73.8747 29.289 73.9895C32.639 74.711 36.1139 74.711 39.4639 73.9895C39.4082 73.8715 39.3793 73.7434 39.3793 73.6139C39.3793 73.4843 39.4082 73.3563 39.4639 73.2383L42.1621 65.1337Z" fill="white"/>
</g>
</svg>
