<svg width="89" height="89" viewBox="0 0 89 89" fill="none" xmlns="http://www.w3.org/2000/svg">
<path d="M71.288 33.3421C71.361 33.2665 71.432 33.1891 71.4989 33.1067L74.5876 29.3011C75.8356 27.764 75.6002 25.4977 74.0626 24.2494L67.046 18.5544C66.4059 18.0359 65.6074 17.7524 64.7837 17.7513C64.2491 17.7502 63.721 17.869 63.2383 18.0988C62.7555 18.3287 62.3305 18.6638 61.9943 19.0795L58.906 22.8846C58.8882 22.9067 58.8727 22.9302 58.8554 22.9528C56.4112 21.7647 53.8303 20.8814 51.1708 20.3227C53.5154 18.3537 55.0093 15.4033 55.0093 12.1093C55.0093 6.19597 50.1984 1.38525 44.2852 1.38525C38.3719 1.38525 33.5612 6.19597 33.5612 12.1093C33.5612 15.4032 35.0551 18.3537 37.3996 20.3227C34.7517 20.8787 32.1818 21.7565 29.7471 22.9366C29.7338 22.92 29.7224 22.9017 29.7088 22.8853L26.62 19.0797C26.2839 18.6639 25.8588 18.3287 25.376 18.0988C24.8933 17.869 24.3651 17.7502 23.8304 17.7513C23.0067 17.7523 22.2082 18.0358 21.5682 18.5544L14.5514 24.2496C13.0143 25.4979 12.7788 27.764 14.0266 29.3008L17.1156 33.1067C17.1746 33.1795 17.2383 33.2475 17.3021 33.315C13.2399 38.8521 10.8367 45.6787 10.8367 53.0569C10.8367 71.5003 25.8415 86.5053 44.2852 86.5053C62.7288 86.5053 77.7338 71.5005 77.7338 53.0569C77.7338 45.6905 75.3383 38.8744 71.288 33.3421ZM64.4791 21.096C64.5156 21.0504 64.5621 21.0138 64.6148 20.9887C64.6676 20.9637 64.7253 20.9509 64.7837 20.9513C64.8466 20.9513 64.9402 20.9667 65.0293 21.039L72.0458 26.7339C72.1263 26.7993 72.1775 26.8941 72.1883 26.9973C72.199 27.1005 72.1683 27.2037 72.1029 27.2843L69.2727 30.7717C67.0814 28.3158 64.5389 26.1976 61.7277 24.4859L64.4791 21.096ZM46.7114 19.2299C46.0898 19.4422 45.4429 19.5717 44.7874 19.6149C44.62 19.6123 44.453 19.6085 44.2852 19.6085C44.1173 19.6085 43.9503 19.6123 43.7829 19.6149C42.9747 19.5618 42.1805 19.3777 41.4314 19.0697V13.7721H46.7114V19.2299ZM44.2852 4.58525C48.4341 4.58525 51.8093 7.96062 51.8093 12.1093C51.8093 14.0217 51.0909 15.7688 49.9114 17.0977V10.5721H38.2314V16.5712C37.3082 15.3217 36.7612 13.7785 36.7612 12.1093C36.7612 7.96062 40.1364 4.58525 44.2852 4.58525ZM16.5111 27.2841C16.4458 27.2036 16.4152 27.1004 16.4259 26.9973C16.4366 26.8942 16.4878 26.7995 16.5682 26.7341L23.5848 21.039C23.6541 20.9822 23.7409 20.9513 23.8304 20.9513C23.9005 20.9513 24.0332 20.9701 24.1351 21.096L26.8864 24.4859C24.0752 26.1976 21.5327 28.3158 19.3415 30.7717L16.5111 27.2841ZM44.2852 83.3053C27.6061 83.3053 14.0367 69.7358 14.0367 53.0569C14.0367 37.1342 26.4034 24.0465 42.0364 22.8921H46.5338C62.1668 24.0465 74.5336 37.1344 74.5336 53.0569C74.5338 69.7358 60.9642 83.3053 44.2852 83.3053Z" fill="#FFC727"/>
<path d="M44.2853 25.4178C29.045 25.4178 16.6461 37.8166 16.6461 53.0569C16.6461 68.2972 29.045 80.6961 44.2853 80.6961C59.5256 80.6961 71.9244 68.2972 71.9244 53.0569C71.9244 37.8166 59.5256 25.4178 44.2853 25.4178ZM44.2853 77.4961C30.8095 77.4961 19.8461 66.5327 19.8461 53.0569C19.8461 39.581 30.8095 28.6178 44.2853 28.6178C57.7612 28.6178 68.7243 39.5812 68.7243 53.0569C68.7243 66.5326 57.7612 77.4961 44.2853 77.4961Z" fill="#FFC727"/>
<path d="M45.7515 50.3656V34.4121C45.7515 33.5286 45.035 32.8121 44.1515 32.8121C43.2679 32.8121 42.5515 33.5286 42.5515 34.4121V50.4464C41.4159 51.0494 40.6423 52.2432 40.6423 53.6184C40.6423 54.9937 41.4159 56.1878 42.5515 56.7905V59.0521C42.5515 59.9357 43.2679 60.6521 44.1515 60.6521C45.035 60.6521 45.7515 59.9357 45.7515 59.0521V56.8712C46.9747 56.299 47.8222 55.0581 47.8222 53.6184C47.8222 52.1789 46.9747 50.9379 45.7515 50.3656Z" fill="#FFC727"/>
</svg>
