<svg width="41" height="37" viewBox="0 0 41 37" fill="none" xmlns="http://www.w3.org/2000/svg">
<g clip-path="url(#clip0_188_1204)">
<path fill-rule="evenodd" clip-rule="evenodd" d="M29.3791 22.1723C28.8922 21.9426 26.5051 20.8357 26.0607 20.6815C25.6163 20.5289 25.2928 20.4534 24.9677 20.9128C24.6442 21.3691 23.7145 22.402 23.4318 22.7073C23.1475 23.0141 22.8649 23.0511 22.3796 22.8229C21.8944 22.5916 20.3291 22.1091 18.4747 20.5489C17.032 19.3341 16.0565 17.8341 15.7739 17.3746C15.4912 16.9168 15.7428 16.6686 15.9863 16.4404C16.2052 16.2354 16.4715 15.9054 16.715 15.6387C16.9584 15.3705 17.0385 15.1793 17.2003 14.8725C17.3636 14.5673 17.2819 14.3006 17.1594 14.0709C17.0385 13.8411 16.068 11.5857 15.6628 10.6684C15.269 9.77577 14.8687 9.89756 14.5714 9.88215C14.2871 9.86981 13.9636 9.86673 13.6401 9.86673C13.3166 9.86673 12.7904 9.98081 12.346 10.4402C11.9 10.8981 10.6468 12.0066 10.6468 14.262C10.6468 16.5159 12.3852 18.6943 12.6287 19.0011C12.8721 19.3064 16.0516 23.9344 20.9222 25.9186C22.0823 26.3903 22.9858 26.6724 23.69 26.8821C24.8533 27.2321 25.912 27.1827 26.7486 27.064C27.6799 26.933 29.6209 25.9556 30.0261 24.8856C30.4297 23.8157 30.4297 22.8984 30.3088 22.7073C30.1879 22.5161 29.8644 22.402 29.3775 22.1723H29.3791ZM20.5203 33.5853H20.5137C17.6209 33.5858 14.7811 32.852 12.2921 31.4609L11.7039 31.1309L5.58999 32.6449L7.22222 27.0209L6.83826 26.4443C5.22096 24.0151 4.36507 21.2038 4.36949 18.3351C4.37276 9.93302 11.6173 3.09727 20.5268 3.09727C24.8402 3.09727 28.8955 4.68519 31.9443 7.56502C33.4481 8.97808 34.64 10.6585 35.451 12.509C36.2621 14.3595 36.6762 16.3434 36.6694 18.3459C36.6662 26.748 29.4216 33.5853 20.5203 33.5853ZM34.2644 5.3774C32.4642 3.66757 30.3222 2.31185 27.9627 1.3888C25.6032 0.465745 23.0729 -0.00628421 20.5186 6.31737e-05C9.81027 6.31737e-05 1.09195 8.22485 1.08868 18.3336C1.08372 21.5506 1.97812 24.712 3.68163 27.4988L0.925293 37.0001L11.2252 34.4501C14.0745 35.9149 17.2674 36.6824 20.5121 36.6825H20.5203C31.2286 36.6825 39.947 28.4577 39.9502 18.3474C39.9581 15.9382 39.4597 13.5515 38.4837 11.3252C37.5078 9.09893 36.0737 7.07735 34.2644 5.3774Z" fill="white"/>
</g>
<defs>
<clipPath id="clip0_188_1204">
<rect width="39.2128" height="37" fill="white" transform="translate(0.925293)"/>
</clipPath>
</defs>
</svg>
