<svg width="90" height="87" viewBox="0 0 90 87" fill="none" xmlns="http://www.w3.org/2000/svg">
<path d="M84.375 36.7031H73.125C72.2812 36.7031 71.7188 36.1593 71.7188 35.3437C71.7188 34.5281 72.2812 33.9843 73.125 33.9843H84.375C85.2188 33.9843 85.7812 34.5281 85.7812 35.3437C85.7812 36.1593 85.2188 36.7031 84.375 36.7031ZM73.6875 30.7218C73.125 30.7218 72.5625 30.45 72.2813 29.9062C72 29.0906 72.2812 28.5468 73.125 28.0031L79.875 25.2843C80.7188 25.0125 81.2812 25.2843 81.8438 26.1C82.125 26.9156 81.8438 27.4593 81 28.0031L74.25 30.7218H73.6875ZM80.4375 45.4031H79.875L73.125 42.6843C72.2812 42.4124 72 41.5968 72.2813 40.7812C72.5625 39.9656 73.4062 39.6937 74.25 39.9656L81 42.6843C81.8438 42.9562 82.125 43.7718 81.8438 44.5874C81.5625 45.1312 81 45.4031 80.4375 45.4031ZM25.3125 77.4843H19.6875C18.8438 77.4843 18.2812 76.9406 18.2812 76.1249L15.4688 46.2187C15.4688 45.9468 15.4687 45.4031 15.75 45.1312C16.0312 44.8593 16.3125 44.5874 16.875 44.5874H25.3125C26.1562 44.5874 26.7188 45.1312 26.7188 45.9468V75.8531C26.7188 76.9406 26.1562 77.4843 25.3125 77.4843ZM21.0938 74.7656H23.9062V47.5781H18.2812L21.0938 74.7656ZM16.875 36.7031H11.25C10.4062 36.7031 9.84375 36.1593 9.84375 35.3437C9.84375 34.5281 10.4062 33.9843 11.25 33.9843H16.875C17.7188 33.9843 18.2812 34.5281 18.2812 35.3437C18.2812 36.1593 17.7188 36.7031 16.875 36.7031ZM16.875 42.1406H11.25C10.4062 42.1406 9.84375 41.5968 9.84375 40.7812C9.84375 39.9656 10.4062 39.4218 11.25 39.4218H16.875C17.7188 39.4218 18.2812 39.9656 18.2812 40.7812C18.2812 41.5968 17.7188 42.1406 16.875 42.1406ZM16.875 31.2656H11.25C10.4062 31.2656 9.84375 30.7218 9.84375 29.9062C9.84375 29.0906 10.4062 28.5468 11.25 28.5468H16.875C17.7188 28.5468 18.2812 29.0906 18.2812 29.9062C18.2812 30.7218 17.7188 31.2656 16.875 31.2656Z" fill="#000954"/>
<path d="M28.125 47.5781H14.0625C11.8125 47.5781 9.84375 45.675 9.84375 43.5V27.1875C9.84375 25.0125 11.8125 23.1094 14.0625 23.1094H28.125C28.9688 23.1094 29.5312 23.6531 29.5312 24.4688V46.2188C29.5312 47.0344 28.9688 47.5781 28.125 47.5781ZM14.0625 25.8281C13.2188 25.8281 12.6562 26.3719 12.6562 27.1875V43.5C12.6562 44.3156 13.2188 44.8594 14.0625 44.8594H26.7188V25.8281H14.0625ZM59.0625 61.1719C56.8125 61.1719 54.8438 59.2687 54.8438 57.0938V13.5938C54.8438 11.4187 56.8125 9.51562 59.0625 9.51562C61.3125 9.51562 63.2812 11.4187 63.2812 13.5938V57.0938C63.2812 59.2687 61.5938 61.1719 59.0625 61.1719ZM59.0625 12.2344C58.2188 12.2344 57.6562 12.7781 57.6562 13.5938V57.0938C57.6562 57.9094 58.2188 58.4531 59.0625 58.4531C59.9062 58.4531 60.4688 57.9094 60.4688 57.0938V13.5938C60.4688 12.7781 59.9062 12.2344 59.0625 12.2344Z" fill="#000954"/>
<path d="M56.25 55.7344H55.6875L36.2812 47.5781H28.125C27.2812 47.5781 26.7188 47.0344 26.7188 46.2187V24.4687C26.7188 23.6531 27.2812 23.1094 28.125 23.1094H36.2812L55.6875 14.9531C56.25 14.6812 56.5312 14.9531 57.0937 14.9531C57.375 15.225 57.6562 15.4969 57.6562 16.0406V54.1031C57.6562 54.6469 57.375 54.9187 57.0937 55.1906C56.8125 55.7344 56.5312 55.7344 56.25 55.7344ZM29.5312 44.8594H37.125L54.8438 52.2V18.4875L37.125 25.8281H29.5312V44.8594ZM11.25 36.7031H8.4375C6.1875 36.7031 4.21875 34.8 4.21875 32.625V29.9062C4.21875 27.7312 6.1875 25.8281 8.4375 25.8281H11.25C12.0938 25.8281 12.6562 26.3719 12.6562 27.1875V35.3437C12.6562 36.1594 12.0938 36.7031 11.25 36.7031ZM8.4375 28.5469C7.59375 28.5469 7.03125 29.0906 7.03125 29.9062V32.625C7.03125 33.4406 7.59375 33.9844 8.4375 33.9844H9.84375V28.5469H8.4375ZM61.875 47.5781C61.0312 47.5781 60.4688 47.0344 60.4688 46.2187C60.4688 45.4031 61.0312 44.8594 61.875 44.8594C64.125 44.8594 66.0938 42.9562 66.0938 40.7812V29.9062C66.0938 27.7312 64.125 25.8281 61.875 25.8281C61.0312 25.8281 60.4688 25.2844 60.4688 24.4687C60.4688 23.6531 61.0312 23.1094 61.875 23.1094C65.8125 23.1094 68.9062 26.1 68.9062 29.9062V40.7812C68.9062 44.5875 65.8125 47.5781 61.875 47.5781Z" fill="#000954"/>
</svg>
