<svg width="82" height="79" viewBox="0 0 82 79" fill="none" xmlns="http://www.w3.org/2000/svg">
<path d="M71.3401 49.77C71.3401 45.4249 67.6501 41.8699 63.1401 41.8699C58.6301 41.8699 54.9401 45.4249 54.9401 49.77C54.9401 54.1149 58.6301 57.6699 63.1401 57.6699C67.6501 57.6699 71.3401 54.1149 71.3401 49.77ZM63.1401 54.5099C60.4341 54.5099 58.2201 52.3769 58.2201 49.77C58.2201 47.1629 60.4341 45.0299 63.1401 45.0299C65.8461 45.0299 68.0601 47.1629 68.0601 49.77C68.0601 52.3769 65.8461 54.5099 63.1401 54.5099ZM63.1401 57.6699C60.0241 57.6699 57.0721 58.618 54.6941 60.277C52.4801 55.063 47.1501 51.3499 41.0001 51.3499C34.8501 51.3499 29.5201 55.063 27.3061 60.277C24.9281 58.697 21.9761 57.6699 18.8601 57.6699C10.7421 57.6699 4.1001 64.0689 4.1001 71.8899V73.4699C4.1001 74.339 4.8381 75.0499 5.7401 75.0499H76.2601C77.1621 75.0499 77.9001 74.339 77.9001 73.4699V71.8899C77.9001 64.0689 71.2581 57.6699 63.1401 57.6699ZM26.2401 65.5699V71.8899H7.3801C7.3801 65.8069 12.5461 60.8299 18.8601 60.8299C21.7301 60.8299 24.3541 61.8569 26.4041 63.5949C26.3221 64.2269 26.2401 64.8589 26.2401 65.5699ZM52.4801 71.8899H29.5201V65.5699C29.5201 59.4869 34.6861 54.5099 41.0001 54.5099C47.3141 54.5099 52.4801 59.4869 52.4801 65.5699V71.8899ZM55.7601 71.8899V65.5699C55.7601 64.8589 55.6781 64.2269 55.5961 63.5949C57.6461 61.9359 60.2701 60.8299 63.1401 60.8299C69.4541 60.8299 74.6201 65.8069 74.6201 71.8899H55.7601ZM27.0601 49.77C27.0601 45.4249 23.3701 41.8699 18.8601 41.8699C14.3501 41.8699 10.6601 45.4249 10.6601 49.77C10.6601 54.1149 14.3501 57.6699 18.8601 57.6699C23.3701 57.6699 27.0601 54.1149 27.0601 49.77ZM18.8601 54.5099C16.1541 54.5099 13.9401 52.3769 13.9401 49.77C13.9401 47.1629 16.1541 45.0299 18.8601 45.0299C21.5661 45.0299 23.7801 47.1629 23.7801 49.77C23.7801 52.3769 21.5661 54.5099 18.8601 54.5099ZM49.2001 43.45C49.2001 39.1049 45.5101 35.5499 41.0001 35.5499C36.4901 35.5499 32.8001 39.1049 32.8001 43.45C32.8001 47.7949 36.4901 51.3499 41.0001 51.3499C45.5101 51.3499 49.2001 47.7949 49.2001 43.45ZM41.0001 48.1899C38.2941 48.1899 36.0801 46.0569 36.0801 43.45C36.0801 40.8429 38.2941 38.7099 41.0001 38.7099C43.7061 38.7099 45.9201 40.8429 45.9201 43.45C45.9201 46.0569 43.7061 48.1899 41.0001 48.1899ZM10.5781 20.145L9.3481 27.3339C9.2661 27.9659 9.5121 28.5189 10.0041 28.9139C10.4961 29.2299 11.2341 29.309 11.7261 28.993L18.0401 25.6749L24.3541 28.993C24.6001 29.151 24.8461 29.151 25.1741 29.151C25.5021 29.151 25.8301 29.072 26.0761 28.8349C26.5681 28.5189 26.8961 27.8869 26.7321 27.2549L25.5021 20.066L29.5201 16.116L33.5381 20.066L32.3081 27.2549C32.2261 27.8869 32.4721 28.4399 32.9641 28.8349C33.4561 29.1509 34.1941 29.2299 34.6861 28.9139L41.0001 25.596L47.3141 28.9139C47.5601 29.0719 47.8061 29.0719 48.1341 29.0719C48.4621 29.0719 48.7901 28.993 49.0361 28.756C49.5281 28.44 49.8561 27.808 49.6921 27.176L48.4621 19.9869L52.4801 16.037L56.4981 19.9869L55.2681 27.176C55.1861 27.808 55.4321 28.361 55.9241 28.756C56.4161 29.072 57.1541 29.1509 57.6461 28.8349L63.9601 25.5169L70.2741 28.8349C70.5201 28.993 70.7661 28.993 71.0941 28.993C71.4221 28.993 71.7501 28.9139 71.9961 28.6769C72.4881 28.3609 72.8161 27.7289 72.6521 27.0969L71.4221 19.908L76.5881 14.773C76.9981 14.378 77.1621 13.746 76.9981 13.193C76.8341 12.64 76.2601 12.245 75.6861 12.166L68.6341 11.139L65.4361 4.66095C65.1901 4.34495 64.6161 3.94995 63.9601 3.94995C63.3041 3.94995 62.7301 4.34495 62.4841 4.81895L59.2861 11.297L52.4801 12.403L45.6741 11.376L42.4761 4.89795C42.2301 4.34495 41.6561 3.94995 41.0001 3.94995C40.3441 3.94995 39.7701 4.34495 39.5241 4.81895L36.3261 11.297L29.5201 12.403L22.7141 11.376L19.5161 4.89795C19.2701 4.34495 18.6961 3.94995 18.0401 3.94995C17.3841 3.94995 16.8101 4.34495 16.5641 4.81895L13.3661 11.297L6.3141 12.324C5.7401 12.403 5.1661 12.798 5.0021 13.351C4.8381 13.904 4.9201 14.536 5.4121 14.931L10.5781 20.145ZM60.6801 14.378C61.2541 14.299 61.6641 13.983 61.9101 13.509L63.9601 9.24295L66.0101 13.509C66.2561 13.983 66.6661 14.299 67.2401 14.378L71.9961 15.089L68.4701 18.565C68.0601 18.96 67.8961 19.434 68.0601 19.908L68.8801 24.7269L64.7801 22.5149C64.5341 22.357 64.2881 22.3569 63.9601 22.3569C63.6321 22.3569 63.3861 22.4359 63.1401 22.5149L59.0401 24.7269L59.8601 19.908C59.9421 19.434 59.7781 18.881 59.4501 18.565L55.9241 15.089L60.6801 14.378ZM37.7201 14.378C38.2941 14.299 38.7041 13.983 38.9501 13.509L41.0001 9.24295L43.0501 13.509C43.2961 13.983 43.7061 14.299 44.2801 14.378L49.0361 15.089L45.5101 18.565C45.1001 18.96 44.9361 19.434 45.1001 19.908L45.9201 24.7269L41.8201 22.5149C41.5741 22.357 41.3281 22.3569 41.0001 22.3569C40.6721 22.3569 40.4261 22.4359 40.1801 22.5149L36.0801 24.7269L36.9001 19.908C36.9821 19.434 36.8181 18.881 36.4901 18.565L32.9641 15.089L37.7201 14.378ZM14.7601 14.378C15.3341 14.299 15.7441 13.983 15.9901 13.509L18.0401 9.24295L20.0901 13.509C20.3361 13.983 20.7461 14.299 21.3201 14.378L26.0761 15.089L22.5501 18.565C22.1401 18.96 21.9761 19.434 22.1401 19.908L22.9601 24.7269L18.8601 22.5149C18.6141 22.357 18.3681 22.3569 18.0401 22.3569C17.7121 22.3569 17.4661 22.4359 17.2201 22.5149L13.1201 24.7269L13.9401 19.908C14.0221 19.434 13.8581 18.881 13.5301 18.565L10.0041 15.089L14.7601 14.378Z" fill="#000654"/>
</svg>
