<svg width="50" height="77" viewBox="0 0 50 77" fill="none" xmlns="http://www.w3.org/2000/svg">
<path d="M2.94134 34.4887L3.6031 35.5639L17.1765 57.6191L18.7648 60.1967L25 70.1491L31.1617 60.1967L32.7058 57.6604L46.2498 35.7707L47.0587 34.4612C47.3087 34.0063 47.5587 33.5376 47.7939 33.0827C49.2612 30.0525 50.0136 26.7612 49.9998 23.4336C49.9998 17.2186 47.3659 11.2582 42.6775 6.86354C37.9892 2.46889 31.6304 0 25 0C18.3696 0 12.0108 2.46889 7.32246 6.86354C2.63409 11.2582 0.000185315 17.2186 0.000185315 23.4336C-0.0135723 26.7612 0.738837 30.0525 2.20605 33.0827C2.44134 33.51 2.70605 33.9925 2.94134 34.4887ZM25 7.802C28.3745 7.79928 31.6741 8.73476 34.4813 10.4901C37.2885 12.2454 39.4773 14.7418 40.7707 17.6633C42.064 20.5849 42.404 23.8004 41.7474 26.903C41.0909 30.0057 39.4673 32.8561 37.0822 35.0937C34.6971 37.3313 31.6576 38.8556 28.3481 39.4737C25.0386 40.0918 21.608 39.7759 18.49 38.5661C15.3721 37.3563 12.707 35.3068 10.8319 32.677C8.95686 30.0471 7.95601 26.9551 7.95601 23.792C7.95601 19.5536 9.75124 15.4885 12.9472 12.4902C16.1431 9.49193 20.4783 7.80566 25 7.802ZM12.1766 21.1316L11.3383 21.7794C11.3383 21.5865 11.4119 21.4211 11.4413 21.2419L11.5442 20.9524L11.9266 19.8221L12.2795 18.7331L12.3824 18.416C12.4919 18.2633 12.5761 18.096 12.6324 17.9198L12.9119 18.9123L13.3089 20.2907L12.1766 21.1316ZM18.2206 34.2268L18.5736 35.1642L18.0736 34.9023L17.8236 34.7093L16.8089 34.0201L15.8236 33.317L15.5589 33.1516C15.4299 33.041 15.2923 32.9396 15.1471 32.8484H16.1765L17.6471 32.9586L18.2206 34.2268ZM17.8236 30.8496L13.0295 30.4637C12.0122 28.7693 11.4 26.888 11.2354 24.9499L15.0001 22.0276L19.4118 23.4887L20.7941 27.3346L17.8236 30.8496ZM15.6471 19.7256L14.5001 15.0526C15.902 13.6263 17.625 12.5103 19.5442 11.7857L23.7059 14.2807V18.5125L19.9118 21.1316L15.6471 19.7256ZM23.7794 11.4549L22.853 10.9173L23.4265 10.8484H26.5735L27.147 10.9173L26.2353 11.4549L25 12.1717L23.7794 11.4549ZM27.0735 26.7694H22.9265L21.603 22.9787L25 20.6491L28.397 22.9787L27.0735 26.7694ZM27.0735 28.6028L30.0147 32.0489L28.2941 36.3221C27.2465 36.5772 26.1705 36.716 25.0882 36.7356C24.011 36.7142 22.9401 36.5754 21.8971 36.3221L20.1765 32.0489L23.1177 28.6028H27.0735ZM33.8235 32.8484H34.897C34.7525 32.9652 34.615 33.0894 34.4852 33.2206L34.2058 33.386L33.2352 34.089L32.2205 34.7782L31.9558 34.9712C31.7874 35.0472 31.6252 35.1347 31.4705 35.2331L31.8235 34.2957L32.3529 33L33.8235 32.8484ZM26.3235 14.3083L30.5 11.8133C32.4145 12.5385 34.1326 13.6545 35.5293 15.0802L34.397 19.7531L30.1323 21.1316L26.3235 18.5263V14.3083ZM37.8528 21.2005L36.7646 20.2632L37.1617 18.8847L37.4411 17.8922C37.5293 18.0852 37.6028 18.2368 37.6911 18.3885L37.794 18.7055L38.1764 19.7945L38.5293 20.9248L38.6323 21.2143C38.6323 21.3935 38.7058 21.5589 38.7352 21.7519L37.8528 21.2005ZM35.044 22.1516L38.794 25.0739C38.6294 27.012 38.0172 28.8934 36.9999 30.5877L32.2205 30.9737L29.2794 27.4586L30.6323 23.6541L35.044 22.1516ZM49.8381 67.0752C49.8381 73.5263 37.044 77 25 77C12.956 77 0.161948 73.5263 0.161948 67.0752C0.161948 62.5952 6.33837 59.5489 14.1324 58.1015L15.603 60.6103C7.91189 61.8647 3.04428 64.5664 3.04428 67.0752C3.04428 70.3835 11.603 74.0501 24 74.2293H25.75C38.2205 74.0777 46.8381 70.3972 46.8381 67.0752C46.8381 64.5664 41.9411 61.8509 34.1911 60.5965L35.7352 58.0877C43.6322 59.5213 49.8381 62.5815 49.8381 67.0752Z" fill="#000654"/>
</svg>
