<svg width="50" height="91" viewBox="0 0 50 91" fill="none" xmlns="http://www.w3.org/2000/svg">
<path d="M9.27326 81.22L12.1963 82.18V85.285L9.27326 86.243L7.47427 83.732L9.27326 81.22ZM49.6173 28.162C49.5553 28.674 49.3883 29.014 49.1243 29.172C48.9783 29.26 48.8533 29.335 46.7593 29.335C44.2653 29.335 40.2443 29.22 38.8033 29.176C38.8203 29.675 38.8303 30.414 38.7783 30.946C38.7043 31.689 38.8503 33.432 39.5083 35.897C40.1753 38.398 40.5823 45.377 40.5983 45.673C40.604 45.7698 40.5813 45.8661 40.533 45.9502C40.4847 46.0342 40.4128 46.1023 40.3263 46.146C40.2773 46.17 39.2683 46.674 38.7363 46.911C38.7493 46.98 38.7673 47.064 38.7823 47.127C38.8673 47.504 38.9843 48.021 38.6723 48.41C38.3523 48.812 37.5583 49.053 37.0043 49.178C36.8763 50.395 36.4383 54.297 35.8703 56.495C35.2013 59.086 33.1703 63.028 31.9893 64.028C31.6223 64.338 31.1243 64.723 30.5853 65.14C29.5443 65.946 28.3633 66.859 27.7323 67.541C27.2053 68.113 26.8133 69.015 26.4673 69.809C26.1983 70.426 25.9673 70.958 25.6903 71.315C25.4503 71.622 25.4253 71.876 25.3833 72.296C25.3483 72.652 25.3043 73.097 25.1033 73.656C24.6393 74.956 22.2833 78.281 19.9423 80.623C18.6923 81.873 17.8693 82.492 17.2533 82.905C17.2833 83.176 17.3033 83.452 17.3033 83.732C17.3033 85.342 16.7703 86.827 15.8823 88.032C15.8913 88.896 15.6543 89.173 15.0143 89.505C14.8865 89.57 14.7607 89.6391 14.6373 89.712C14.3883 89.861 14.1023 89.932 13.7803 89.95C12.652 90.6363 11.3569 90.9995 10.0363 91C8.81686 90.9993 7.61727 90.6915 6.54819 90.105C5.47911 89.5185 4.57499 88.6721 3.91927 87.644C3.77234 87.5807 3.625 87.5184 3.47727 87.457C2.44727 87.032 1.28127 86.551 0.803267 85.732C0.471267 85.164 0.233267 84.693 0.422267 84.261C0.604267 83.845 1.08527 83.738 1.37227 83.673C1.64627 83.612 2.17127 83.421 2.79727 83.156C2.91044 81.7533 3.428 80.4136 4.28724 79.2991C5.14648 78.1846 6.31051 77.3433 7.63827 76.877C7.73827 76.052 7.96727 74.108 8.26427 71.124C8.58527 67.913 8.97927 66.342 9.24027 65.303L9.27127 65.181C9.52827 64.152 10.0223 62.833 11.0333 60.474C11.6703 58.989 11.9203 57.674 12.2103 56.154C12.3603 55.367 12.5193 54.534 12.7443 53.606C13.1263 52.032 14.1303 48.172 15.1973 46.359C15.6293 45.626 15.9803 44.714 16.2893 43.911C16.5603 43.208 16.8163 42.544 17.0983 42.059C17.2943 41.724 17.4453 41.513 17.6033 41.293C17.9033 40.877 18.2423 40.404 19.0653 38.703C20.2563 36.241 20.2563 34.065 20.2563 31.31C20.2563 29.636 19.6653 28.729 19.2713 28.31C18.3233 29.616 15.5333 33.45 14.7643 34.359C13.9023 35.379 12.4863 38.059 12.3833 38.387C12.3303 38.6 12.1393 38.85 11.6743 39.444C11.1893 40.063 10.5263 40.909 10.3003 41.495C10.1303 41.938 10.3723 42.588 10.5503 43.063C10.7213 43.521 10.8443 43.851 10.6753 44.155C10.5795 44.2999 10.434 44.4049 10.2663 44.45C9.97826 44.508 9.79627 44.502 9.45527 44.484C9.25827 44.474 8.99727 44.46 8.59727 44.46C7.75727 44.46 7.37327 44.101 7.00127 43.753C6.81727 43.581 6.62727 43.403 6.34627 43.224C5.34327 42.585 5.60527 41.337 5.81627 40.334C5.86927 40.083 5.92227 39.833 5.95627 39.593C6.07127 38.789 6.98927 37.755 8.27427 36.38C8.80327 35.815 9.35027 35.23 9.47727 34.975L9.95127 34.042C10.8513 32.274 12.7253 28.595 13.1843 27.481C13.3393 27.106 13.5803 26.602 13.8493 26.042C14.5013 24.684 15.4863 22.632 15.3843 21.864C15.3363 21.503 15.1993 21.139 15.0553 20.753C14.7403 19.911 14.3833 18.956 14.8313 17.74C15.5173 15.877 17.2803 15.436 18.5673 15.115C19.5467 14.8588 20.5209 14.5831 21.4893 14.288C21.4016 14.0793 21.3265 13.8656 21.2643 13.648L21.2143 13.429C21.0773 12.807 20.9593 12.443 20.8613 12.347C20.2383 11.881 20.0083 9.344 20.0083 9.144C20.0083 8.601 20.4273 8.396 20.7513 8.439C20.7483 7.75 20.7353 6.639 20.6713 5.877C20.5583 4.536 20.8913 3.582 21.6883 2.963C22.4823 2.345 24.3913 1.308 25.9633 1.046C27.5393 0.780998 29.5193 1.678 30.5133 2.573C31.5233 3.483 31.6713 5.752 31.5853 6.708C31.5453 7.144 31.4083 7.63 31.2993 8.02C31.2616 8.14927 31.2266 8.27929 31.1943 8.41C31.2253 8.442 31.2543 8.479 31.2793 8.519C31.6363 9.099 31.2793 10.952 30.8733 11.765L30.7983 11.914C30.6213 12.267 30.4213 12.665 30.4253 12.795C30.4313 12.795 30.4553 12.817 30.5103 12.848C30.8143 13.021 32.6583 13.596 34.1433 14.057C35.2343 14.397 36.3063 14.731 36.9623 14.96C37.9963 15.322 39.0343 16.331 40.0383 17.306C40.7593 18.006 41.4393 18.667 41.9933 18.96C43.4563 19.735 46.4763 22.503 48.1483 24.175C49.4353 25.468 49.7453 27.13 49.6173 28.162ZM21.5023 11.599C21.8533 11.854 22.0243 12.512 22.1803 13.218L22.2233 13.408C22.2513 13.519 22.3243 13.713 22.4033 13.912C22.464 13.9632 22.5108 14.0289 22.5393 14.103C22.5473 14.124 23.3663 16.248 24.8633 16.177C26.4433 16.108 26.9993 15.219 27.0223 15.181C27.0897 15.0686 27.1986 14.9874 27.3255 14.9548C27.4525 14.9222 27.5871 14.941 27.7003 15.007C27.8127 15.0725 27.8948 15.1796 27.9287 15.3053C27.9626 15.4309 27.9456 15.5649 27.8813 15.678C27.8493 15.735 27.0593 17.074 24.9073 17.168C24.8673 17.17 24.8283 17.17 24.7893 17.17C23.5263 17.17 22.6693 16.276 22.1643 15.511C21.6373 16.841 21.3593 18.144 21.5723 18.41C22.0653 19.027 23.5403 19.842 25.9493 18.988C28.2383 18.176 28.7743 16.988 29.0963 15.938C29.3373 15.152 29.5833 13.983 29.6903 13.457C29.1823 12.925 29.5343 12.216 29.9083 11.469L29.9823 11.321C30.3213 10.645 30.4533 9.576 30.4323 9.148C30.3993 9.127 30.3733 9.096 30.3453 9.069C30.1613 9.34 29.9733 9.463 29.8463 9.145C29.5153 8.318 29.5163 6.912 28.4413 6.002C27.3673 5.092 26.8693 6.167 25.2983 6.746C24.1603 7.165 22.5073 6.502 21.6783 6.103C21.7413 7.103 21.7413 8.429 21.7413 8.896C21.7413 9.379 21.3523 9.599 21.0263 9.552C21.1093 10.273 21.3453 11.386 21.5023 11.599ZM11.4333 38.098C11.4423 38.06 11.4673 37.995 11.4993 37.918C10.9103 37.423 9.80627 36.997 9.22627 36.809L8.99527 37.059C8.20626 37.903 7.01427 39.177 6.93527 39.735C6.89727 39.995 6.84127 40.267 6.78327 40.54C6.58327 41.494 6.48127 42.137 6.87527 42.388C7.23327 42.617 7.47827 42.845 7.67527 43.029C8.00827 43.34 8.14527 43.468 8.59327 43.468C9.01627 43.468 9.29427 43.483 9.50427 43.494L9.65027 43.501L9.61727 43.411C9.39727 42.823 9.06526 41.933 9.37027 41.14C9.64927 40.416 10.3373 39.538 10.8893 38.834C11.1103 38.551 11.3853 38.201 11.4333 38.098ZM10.3253 65.08C10.8943 65.3136 11.5081 65.4178 12.1223 65.385C13.3453 65.321 14.8383 64.941 15.3603 64.798C15.4943 63.802 15.6333 62.796 15.7963 61.979C16.0663 60.626 17.0753 59.311 18.8803 57.958C19.7733 57.289 20.5503 55.823 20.5583 55.81L20.6353 55.701L20.8213 55.504C20.4983 54.587 19.8583 53.26 18.4333 52.65C17.1793 52.112 15.1963 52.006 14.1883 51.989C14.0178 52.6044 13.8571 53.2225 13.7063 53.843C13.5109 54.6711 13.3365 55.5041 13.1833 56.341C12.8833 57.92 12.6233 59.282 11.9443 60.868C11.0793 62.885 10.5923 64.149 10.3253 65.08ZM24.0333 73.623C23.6546 73.6904 23.2708 73.7245 22.8863 73.725C22.5813 73.725 22.2553 73.703 21.9123 73.649C20.5803 73.439 20.0693 71.655 19.8743 70.449C19.6263 70.75 19.3463 71.116 19.0783 71.492C19.4613 72.795 20.2303 74.493 20.9463 74.662C21.8733 74.879 22.8403 74.866 23.3343 74.84C23.6453 74.352 23.8833 73.938 24.0333 73.623ZM21.5083 64.933C21.7253 64.066 22.1383 62.917 22.4133 62.187C21.8763 61.463 21.4503 60.78 21.4113 60.422C21.3283 59.677 23.8103 56.204 23.8923 55.543C23.9753 54.881 23.8923 54.55 23.8923 54.55C23.8923 54.55 22.1553 55.873 21.6593 56.617C21.2943 57.165 20.8403 57.575 20.4613 57.754C20.1723 58.119 19.8363 58.482 19.4763 58.752C18.8883 59.192 17.0973 60.536 16.7703 62.173C16.5963 63.043 16.4473 64.159 16.3033 65.238C16.1793 66.165 16.0623 67.04 15.9443 67.631C15.6863 68.924 14.4263 73.27 13.8343 74.455C13.5313 75.061 13.2223 76.205 13.0053 77.103C13.8608 77.4882 14.6339 78.0348 15.2823 78.713C15.5543 78.386 15.8473 77.898 16.0543 77.158L16.2563 76.434C16.9583 73.907 17.4903 72.068 17.9393 71.393C17.9533 71.372 19.3263 69.33 19.9993 68.926C20.2643 68.655 21.1603 66.325 21.5083 64.933ZM10.0783 66.049C9.99627 66.388 9.90627 66.788 9.81227 67.263C10.5433 67.451 11.6413 67.701 12.3133 67.701C13.1383 67.701 14.4563 67.326 15.0213 67.152C15.0843 66.788 15.1493 66.348 15.2163 65.863C14.4883 66.046 13.2553 66.32 12.1743 66.376C11.4606 66.4108 10.7474 66.2995 10.0783 66.049ZM8.67127 76.596C9.1211 76.509 9.5781 76.4645 10.0363 76.463C10.7583 76.463 11.4543 76.573 12.1123 76.77C12.2633 76.016 12.5433 74.814 12.9453 74.012C13.4073 73.088 14.3413 69.967 14.7773 68.256C14.0683 68.453 13.0533 68.693 12.3143 68.693C11.5593 68.693 10.4163 68.441 9.63627 68.243C9.4765 69.2323 9.34843 70.2265 9.25226 71.224C8.98927 73.851 8.78227 75.663 8.67127 76.596ZM16.2413 83.732C16.2413 83.169 16.1403 82.632 16.0013 82.113L13.3893 81.467L13.5903 78.655C12.6448 77.9998 11.5351 77.6219 10.3863 77.564L8.99727 79.794L6.38727 78.735C5.39389 79.4623 4.6398 80.4692 4.22127 81.627L5.99527 83.731L4.22127 85.835C4.63127 86.9641 5.36092 87.9494 6.32127 88.671L8.79727 87.666L10.1983 89.921C10.7467 89.9028 11.2904 89.8123 11.8153 89.652C11.7863 89.647 11.7583 89.64 11.7303 89.634C12.0013 89.571 12.2613 89.485 12.5183 89.391C12.8923 89.2324 13.2497 89.0371 13.5853 88.808L13.3893 86.071L15.9753 85.431C16.1303 84.889 16.2413 84.325 16.2413 83.732ZM22.6543 75.843C22.0033 75.8405 21.3546 75.7677 20.7193 75.626C19.6253 75.369 18.8593 73.84 18.4263 72.684C18.0483 73.693 17.5793 75.38 17.2123 76.702L17.0103 77.428C16.7343 78.411 16.3143 79.052 15.9183 79.481C16.4356 80.1927 16.818 80.9933 17.0463 81.843C17.5863 81.456 18.2683 80.898 19.2423 79.923C20.5343 78.629 21.7443 77.124 22.6543 75.843ZM27.0023 66.868C27.1883 66.668 27.4143 66.453 27.6633 66.229C26.8723 65.904 24.9963 65.083 24.2233 64.308C23.8434 63.9207 23.4807 63.517 23.1363 63.098C22.8983 63.757 22.6273 64.553 22.4713 65.173C22.3653 65.6 21.4873 68.562 20.7643 69.521C20.8463 70.602 21.2333 72.536 22.0683 72.667C22.8313 72.7846 23.6106 72.7382 24.3543 72.531C24.3693 72.419 24.3863 72.304 24.3963 72.197C24.4433 71.724 24.4913 71.236 24.9073 70.702C25.1073 70.446 25.3243 69.943 25.5573 69.412C25.9333 68.546 26.3603 67.562 27.0023 66.868ZM47.4433 24.879C45.8763 23.312 42.8833 20.558 41.5243 19.839C40.8463 19.481 40.1163 18.771 39.3433 18.02C38.4593 17.162 37.4583 16.189 36.6303 15.899C35.9813 15.672 34.9233 15.343 33.8433 15.007C32.3813 14.552 31.3113 14.215 30.6553 13.977C30.5273 14.589 30.3163 15.544 30.0993 16.248C29.6923 17.571 28.9233 19.048 26.2993 19.979C25.5601 20.2494 24.7803 20.3918 23.9933 20.4C22.5053 20.4 21.3583 19.826 20.7503 19.067C20.1493 18.315 20.6303 16.598 21.0593 15.45C20.3513 15.658 19.4773 15.908 18.8023 16.077C17.3623 16.437 16.2243 16.813 15.7563 18.083C15.4353 18.954 15.6873 19.626 15.9793 20.405C16.1363 20.826 16.2993 21.261 16.3623 21.733C16.4933 22.717 15.7383 24.389 14.7373 26.472C14.4783 27.013 14.2453 27.497 14.0953 27.86C13.6213 29.011 11.8043 32.577 10.8283 34.493L10.3583 35.419C10.2401 35.6295 10.1 35.8269 9.94027 36.008C10.5053 36.214 11.3293 36.556 11.9463 37.003C12.5013 35.952 13.3833 34.45 14.0013 33.719C14.8893 32.67 18.7363 27.352 18.7753 27.298C18.8475 27.1986 18.954 27.1294 19.0741 27.1037C19.1943 27.0781 19.3197 27.0978 19.4263 27.159C19.5013 27.202 21.2453 28.247 21.2453 31.31C21.2453 34.192 21.2453 36.469 19.9553 39.135C19.1253 40.849 18.7563 41.384 18.4413 41.822C19.0113 41.936 19.9093 42.335 21.2433 43.467C23.9723 45.783 25.3793 47.684 27.6953 48.263C29.6813 48.76 34.6423 49.013 36.0123 49.075L36.0503 48.713C36.0609 48.6052 36.1065 48.5038 36.1802 48.4243C36.2539 48.3448 36.3515 48.2917 36.4583 48.273C37.0853 48.162 37.7703 47.931 37.8943 47.79C37.9003 47.74 37.8423 47.483 37.8103 47.346C37.7293 46.984 37.5763 46.309 38.1793 46.068C38.4373 45.965 39.1293 45.629 39.5843 45.403C39.4953 43.975 39.1073 38.259 38.5453 36.153C37.8553 33.563 37.7003 31.714 37.7873 30.847C37.8513 30.196 37.8083 29.142 37.7913 28.807C37.7613 28.813 37.7323 28.828 37.7013 28.828C37.5984 28.8278 37.4981 28.7956 37.4143 28.736C37.4023 28.728 37.3963 28.715 37.3863 28.706C37.3143 28.727 37.2423 28.749 37.1623 28.749C37.1258 28.7483 37.0894 28.7457 37.0533 28.741C36.3403 28.639 35.5133 28.086 34.3733 26.946C33.7443 26.317 33.6303 25.943 33.5663 25.614C33.5623 25.561 33.5313 25.527 33.4073 25.458C32.8663 25.157 32.6713 24.761 32.5423 24.499C32.4513 24.313 32.4203 24.262 32.3533 24.228C31.8643 23.984 31.1223 23.263 31.0223 22.643C30.9979 22.5184 31.0042 22.3898 31.0406 22.2682C31.077 22.1466 31.1425 22.0357 31.2313 21.945C31.5823 21.596 32.5943 21.222 33.5433 21.222C34.0523 21.222 34.5013 21.326 34.8783 21.529C35.8573 22.056 37.0853 23.453 37.4673 23.903C39.3423 24.203 42.4033 24.502 43.1753 24.092C43.2904 24.0389 43.4214 24.0317 43.5416 24.072C43.6618 24.1123 43.7621 24.197 43.8219 24.3088C43.8817 24.4206 43.8965 24.551 43.8633 24.6734C43.8301 24.7957 43.7514 24.9008 43.6433 24.967C42.5993 25.525 39.6763 25.219 38.0683 24.997C38.2243 25.319 38.4023 25.697 38.5683 26.061C38.9163 26.827 38.6213 27.668 38.3683 28.171C39.0043 28.192 43.8963 28.343 46.7583 28.343C47.9143 28.343 48.3903 28.319 48.5833 28.3C48.7423 27.845 48.7423 26.178 47.4433 24.879ZM34.4093 22.401C33.7533 22.047 32.4343 22.356 32.0373 22.577C32.1513 22.805 32.5223 23.202 32.7993 23.34C33.1743 23.528 33.3203 23.824 33.4363 24.061C33.5443 24.282 33.6243 24.44 33.8943 24.591C34.3563 24.848 34.4793 25.083 34.5453 25.428C34.5743 25.584 34.6113 25.779 35.0773 26.244C35.9773 27.144 36.6463 27.636 37.1173 27.744C37.2563 27.595 37.4663 27.109 37.5963 26.631L36.7763 24.619C36.3393 24.094 35.1893 22.821 34.4093 22.401ZM20.7163 40.464C20.5799 40.4538 20.4449 40.4965 20.3393 40.5833C20.2337 40.6701 20.1656 40.7943 20.1493 40.93C20.1351 41.0675 20.1753 41.205 20.2613 41.3132C20.3473 41.4214 20.4722 41.4917 20.6093 41.509C20.6253 41.511 22.2523 41.742 25.0103 44.501C27.2793 46.771 29.8443 47.978 32.2913 47.978C32.9723 47.978 33.6433 47.884 34.2953 47.695C34.426 47.6537 34.5355 47.5629 34.6001 47.4419C34.6648 47.321 34.6796 47.1795 34.6413 47.0478C34.603 46.9162 34.5147 46.8047 34.3953 46.7372C34.2759 46.6698 34.1348 46.6518 34.0023 46.687C31.3793 47.448 28.3733 46.38 25.7523 43.76C22.7293 40.734 20.9143 40.483 20.7163 40.464Z" fill="#000654"/>
</svg>
