<svg width="76" height="90" viewBox="0 0 76 90" fill="none" xmlns="http://www.w3.org/2000/svg">
<path d="M58.7433 81.647L61.2403 82.465V85.117L58.7433 85.935L57.2073 83.79L58.7433 81.647ZM75.6133 14.908C75.6133 15.452 75.3373 15.687 75.1733 15.778C75.0222 15.86 74.8506 15.8965 74.6793 15.883C74.7893 16.978 74.8673 18.876 74.2443 19.811C73.6183 20.751 72.5363 21.101 71.4903 21.438C71.0503 21.58 70.5953 21.727 70.1803 21.916C69.4603 22.243 68.6053 22.572 67.7783 22.891C66.9623 23.204 66.1193 23.529 65.4253 23.844C64.0843 24.453 59.5973 25.945 58.0213 25.945C56.9483 25.945 55.1823 25.414 54.2423 25.103C54.1725 25.9018 54.0523 26.6954 53.8823 27.479C53.6893 28.379 53.5953 29.349 53.4953 30.375C53.4003 31.351 53.3043 32.36 53.1123 33.378L52.9833 34.078C52.6903 35.677 52.4973 36.732 51.7963 38.367C50.9443 40.348 50.9363 43.438 50.9363 43.569C50.9363 43.927 51.2613 44.546 51.5763 45.143C51.9003 45.758 52.2663 46.455 52.4613 47.165C52.7843 48.351 53.7103 50.074 54.6073 51.743L54.9913 52.461C55.5673 53.541 56.3203 54.807 56.9843 55.924C57.5083 56.807 57.9933 57.621 58.3313 58.24C58.5753 58.688 58.9213 59.156 59.2863 59.651C60.0483 60.682 60.8343 61.749 60.8343 62.848C60.8343 63.597 60.6993 64.369 60.5693 65.118C60.4403 65.855 60.3193 66.554 60.3193 67.218C60.3193 67.929 60.4993 68.693 60.6903 69.502C60.8553 70.206 61.0273 70.935 61.0883 71.675C61.2193 73.242 60.8473 77.248 60.8313 77.418C60.8186 77.5325 60.7659 77.6388 60.6823 77.718C61.7093 77.9384 62.6637 78.4153 63.4565 79.1043C64.2493 79.7933 64.8548 80.6718 65.2163 81.658C65.6693 81.671 66.3833 81.66 67.0403 81.512L67.1423 81.491C68.3223 81.226 69.5383 80.955 70.3573 81.936C71.0463 82.762 70.8263 83.376 70.6133 83.968C70.5549 84.1262 70.5019 84.2863 70.4543 84.448C70.1453 85.526 69.2673 86.238 67.4183 87.428C66.5533 87.984 65.7363 88.145 65.0823 88.145C64.6053 88.145 64.2273 88.06 63.9623 87.98C63.3836 88.616 62.6784 89.1242 61.892 89.4721C61.1056 89.8199 60.2552 89.9997 59.3953 90C57.7492 89.9987 56.171 89.3442 55.007 88.1803C53.8431 87.0163 53.1886 85.438 53.1873 83.792C53.1878 82.93 53.3684 82.0776 53.7175 81.2895C54.0665 80.5013 54.5763 79.7947 55.2143 79.215C55.1191 79.165 55.0429 79.0853 54.9973 78.988C54.9343 78.844 53.4293 75.45 53.0373 73.62C52.7783 72.413 52.7433 69.791 52.7153 67.683C52.6993 66.545 52.6883 65.562 52.6433 65.079C52.5773 64.35 52.2343 64.092 51.7153 63.7C51.4383 63.49 51.1213 63.252 50.8323 62.915C50.3593 62.362 48.8053 62.048 47.8763 61.86C47.5083 61.787 47.1883 61.72 46.9613 61.655C46.4733 61.515 45.8113 61.504 44.9723 61.488C44.4143 61.478 43.7843 61.467 43.0773 61.417C41.8523 61.329 41.4143 61.22 41.3003 60.331C41.2722 60.0672 41.2083 59.8085 41.1103 59.562C40.7733 58.721 39.8433 57.639 39.0243 56.685C38.6803 56.285 38.3563 55.906 38.0953 55.57C37.5583 54.88 37.1173 55.073 36.6903 55.258C36.6023 55.296 36.5243 55.328 36.4593 55.351C36.3993 55.391 36.1483 55.665 35.9653 55.868C35.4913 56.388 34.9023 57.036 34.2113 57.382C33.4563 57.759 32.3123 59.191 31.3913 60.342C31.1813 60.606 30.9743 60.864 30.7753 61.107C30.4463 61.508 30.0973 61.962 29.7333 62.435C28.8183 63.623 27.7813 64.969 26.7393 65.916C25.4113 67.122 23.9813 67.031 23.0313 66.967C22.8709 66.9544 22.7101 66.9471 22.5493 66.945C21.5043 66.945 18.8293 66.004 17.8273 65C16.8333 64.006 14.9843 61.052 14.2723 59.746C13.6623 58.628 12.7773 57.653 11.9223 56.711L11.3803 56.111C10.8073 55.468 10.6243 55.485 10.3463 55.511C10.1401 55.5393 9.9308 55.5343 9.72628 55.496C9.16928 55.385 7.68728 55.509 6.73028 55.748C6.20928 55.878 5.63128 56.124 5.07328 56.36C4.57328 56.573 4.10128 56.774 3.66128 56.899L3.33328 56.999C2.63028 57.217 2.02428 57.404 1.15028 56.676C0.018279 55.733 0.419279 54.53 0.610279 53.951C0.939279 52.968 2.14528 51.586 3.19428 50.652C4.36028 49.617 6.68328 49.306 7.80028 49.156L8.08028 49.118C8.42528 49.069 9.35828 48.561 10.1083 48.153C11.3573 47.473 12.1483 47.056 12.6493 47.056C13.7083 47.056 15.3323 48.316 15.3323 49.867C15.3323 51.18 15.3643 51.653 15.9813 52.007L16.5983 52.363C17.5583 52.921 19.0093 53.763 19.9203 54.169C20.8563 54.585 21.7283 55.718 22.1693 56.362L22.1843 56.349C22.1966 56.2521 22.2385 56.1614 22.3041 56.0892C22.3698 56.0169 22.4561 55.9666 22.5513 55.945C22.6363 55.764 22.8173 55.294 22.9853 54.856C23.4853 53.545 24.2433 51.566 24.9593 50.491C25.4333 49.781 25.6453 48.983 25.9133 47.973C26.1833 46.959 26.5173 45.699 27.2353 44.133C28.0893 42.27 28.9993 41.323 29.6463 40.848C29.0283 40.424 28.2133 39.733 27.8683 38.87C27.3783 37.646 28.1333 36.517 28.8003 35.522C28.9833 35.248 29.1643 34.979 29.3093 34.717C29.9573 33.55 31.3593 31.869 32.3483 30.88L32.4433 30.785C32.9683 30.261 34.4433 28.787 34.5783 27.979C34.5583 27.992 34.5383 28 34.5183 28.01C34.2853 28.222 33.9883 28.545 33.7643 28.791C33.2413 29.365 32.7003 29.958 32.1703 30.252C31.4253 30.667 30.5513 31.832 29.7063 32.959C29.3851 33.395 29.0547 33.8241 28.7153 34.246C27.2873 35.991 25.6873 38.266 25.4783 39.418C25.2123 40.878 25.2033 40.906 24.5413 42.362C23.7913 44.011 22.9453 44.324 21.6463 44.324C20.6363 44.324 20.3093 43.936 19.9323 43.486C19.7295 43.2345 19.5056 43.0007 19.2633 42.787C18.2893 41.934 18.4173 41.038 18.5203 40.318C18.5483 40.117 18.5793 39.915 18.5793 39.714C18.5793 38.789 19.7713 38.235 20.7293 37.791C20.9893 37.671 21.3463 37.505 21.4273 37.433C21.6423 37.164 22.7613 34.832 23.5783 33.128C24.2463 31.736 24.8763 30.421 25.1953 29.837C25.6143 29.068 26.4473 28.107 27.3303 27.089C28.1343 26.16 28.9673 25.2 29.4493 24.416C30.4893 22.728 32.0603 20.631 33.3603 19.201C34.6933 17.736 37.3483 15.757 39.5363 14.597C41.6073 13.5 42.8643 12.647 43.9863 11.027C44.2743 10.392 44.7983 9.056 44.7983 8.483C44.7983 8.275 44.7833 8.01 44.7673 7.702C44.7133 6.689 44.6313 5.158 44.9373 3.63C45.3603 1.515 46.9233 0.164996 49.1193 0.0179963C51.1483 -0.117004 53.3543 0.564996 54.8643 1.8C56.2323 2.92 56.1583 5.255 56.0963 7.131C56.0853 7.476 56.0753 7.802 56.0753 8.097C56.0753 9.521 55.6223 10.068 55.3223 10.43C55.2453 10.523 55.1723 10.611 55.1603 10.66C54.9643 11.448 54.6423 12.377 53.8993 12.563C53.7893 12.668 53.4603 13.41 53.1993 14.214C53.6913 14.612 54.7113 15.487 55.2283 16.316C55.5983 16.908 56.1253 17.426 56.6843 17.975C56.8333 18.122 56.9813 18.287 57.1313 18.439C57.244 18.4907 57.3332 18.5827 57.3813 18.697C57.5043 18.827 57.6303 18.944 57.7513 19.081C58.3543 19.768 58.7463 19.738 60.1603 19.508L60.6423 19.431C61.3423 19.323 62.2303 19.239 63.1703 19.149C64.5283 19.02 65.9353 18.886 67.0473 18.664C69.0643 18.26 70.1743 17.505 70.2973 17.259C70.4763 16.903 70.7603 14.645 70.7603 13.239C70.7603 11.744 72.5063 11.5 73.2523 11.395C73.3873 11.376 73.5003 11.362 73.5783 11.343C73.7333 11.302 73.9703 11.302 74.2323 11.507C74.9193 12.039 75.6133 14.074 75.6133 14.908ZM54.3883 16.843C54.3503 16.782 54.2993 16.72 54.2553 16.658C54.6813 17.856 55.0123 19.349 54.8253 20.859C54.6013 22.671 54.4523 23.609 54.3603 24.093C54.6523 24.192 55.0723 24.328 55.5423 24.465C55.6043 23.787 55.7073 22.619 55.7513 21.872C55.8043 20.988 56.1723 19.669 56.3553 19.06C56.2323 18.937 56.1113 18.802 55.9903 18.683C55.3883 18.092 54.8193 17.535 54.3883 16.843ZM43.5693 13.045C45.7473 14.8 48.2253 16.632 48.7133 16.73C48.9773 16.776 49.4133 16.519 49.8153 16.199C49.7313 16.188 49.6513 16.184 49.5643 16.166C47.5193 15.728 46.4193 12.763 46.3743 12.637C46.3519 12.5756 46.3418 12.5104 46.3446 12.4451C46.3474 12.3798 46.3631 12.3157 46.3906 12.2565C46.4182 12.1972 46.4572 12.144 46.5054 12.0998C46.5535 12.0557 46.6099 12.0214 46.6713 11.999C46.7327 11.9766 46.7979 11.9665 46.8632 11.9693C46.9285 11.9721 46.9925 11.9878 47.0518 12.0154C47.111 12.0429 47.1643 12.0819 47.2084 12.1301C47.2526 12.1782 47.2869 12.2346 47.3093 12.296C47.5713 13.011 48.5233 14.925 49.7733 15.193C51.0913 15.476 51.9963 14.401 52.1763 14.163C52.6493 12.592 53.1483 11.726 53.6613 11.598C53.6723 11.596 53.9243 11.521 54.1983 10.418C54.2663 10.149 54.4223 9.961 54.5593 9.795C54.8053 9.498 55.0833 9.161 55.0833 8.096C55.0833 7.791 55.0943 7.454 55.1053 7.097C55.1223 6.581 55.1363 6.027 55.1233 5.483C54.9563 5.416 54.7343 5.283 54.4243 5.011C53.3963 4.111 53.1383 3.726 51.8533 3.597C50.5683 3.468 50.5683 4.368 49.7963 5.525C49.0243 6.682 48.3833 7.453 47.8683 7.324C47.3543 7.196 47.4823 6.039 46.4553 5.782C46.0963 5.692 45.8683 5.86 45.7153 6.107C45.7153 6.669 45.7393 7.199 45.7633 7.648C45.7813 7.977 45.7953 8.26 45.7953 8.482C45.7953 9.463 44.9453 11.312 44.8493 11.52C44.4734 12.0689 44.0447 12.5797 43.5693 13.045ZM34.0413 27.114C34.3283 26.824 35.0923 26.312 37.1723 25.618C37.2373 25.597 37.2923 25.564 37.3553 25.54C36.8858 24.6928 36.2116 23.9767 35.3943 23.457C34.4572 22.8606 33.507 22.2851 32.5443 21.731C31.7404 22.7595 30.9907 23.8293 30.2983 24.936C29.7733 25.79 28.9143 26.78 28.0833 27.739C27.2743 28.673 26.4373 29.638 26.0703 30.312C25.7633 30.874 25.1383 32.177 24.4773 33.557C22.9333 36.777 22.3773 37.89 22.1303 38.137C21.9513 38.316 21.6563 38.457 21.1503 38.692C20.7603 38.873 19.5763 39.422 19.5763 39.713C19.5763 39.961 19.5423 40.21 19.5073 40.458C19.4143 41.109 19.3523 41.541 19.9203 42.038C20.2853 42.357 20.5123 42.628 20.6963 42.846C21.0323 43.246 21.1023 43.329 21.6493 43.329C22.5963 43.329 23.0713 43.199 23.6393 41.95C24.2553 40.592 24.2553 40.592 24.5023 39.24C24.7993 37.6 27.0113 34.761 27.9483 33.615C28.2623 33.231 28.5853 32.8 28.9133 32.362C29.8203 31.152 30.7593 29.9 31.6903 29.383C32.0783 29.168 32.5853 28.612 33.0323 28.121C33.4113 27.706 33.7363 27.351 34.0413 27.114ZM2.74528 56.135L2.31428 56.189C2.43428 56.202 2.57528 56.182 2.74528 56.135ZM15.1453 59.27C15.3513 59.646 15.6233 60.11 15.9253 60.603C16.0913 59.612 16.5023 58.294 17.5053 57.291C18.4883 56.308 19.1043 55.508 19.4333 55.036C18.4753 54.599 17.1103 53.809 16.1013 53.224L15.4893 52.87C14.7843 52.468 14.5133 51.921 14.4083 51.258C14.0013 51.209 12.8833 51.127 11.7523 51.538C10.7043 51.92 10.5043 53.642 10.4703 54.508C10.9343 54.496 11.3963 54.63 12.1233 55.45L12.6583 56.042C13.5533 57.027 14.4783 58.046 15.1453 59.27ZM18.1823 63.904C18.2123 62.812 18.4293 60.954 19.4403 59.482C20.3733 58.127 21.0343 57.37 21.3973 56.994C21.1253 56.591 20.7043 56.035 20.2503 55.606C19.8913 56.121 19.2443 56.96 18.2093 57.994C16.7113 59.492 16.8103 61.964 16.8123 61.988H16.8093C17.2983 62.729 17.7913 63.427 18.1823 63.904ZM28.9453 61.827C29.1803 61.521 29.4073 61.231 29.6283 60.949C28.7422 60.4779 27.8508 60.0169 26.9543 59.566C25.7343 58.957 23.6983 57.67 22.8243 57.108C22.6033 57.288 22.4143 57.414 22.3363 57.462C22.2463 57.543 21.5203 58.214 20.2603 60.045C18.9633 61.933 19.1863 64.705 19.1893 64.733C19.1903 64.745 19.1853 64.756 19.1853 64.768C20.2293 65.389 21.8933 65.949 22.5503 65.949C22.7143 65.949 22.8983 65.961 23.0983 65.973C23.9693 66.031 25.0563 66.102 26.0713 65.178C27.0473 64.292 28.0553 62.982 28.9453 61.827ZM59.6193 64.758C59.6133 64.752 59.6043 64.75 59.5983 64.743V64.744C59.5903 64.744 58.9913 64.353 56.7143 64.245C54.9873 64.167 54.0143 64.468 53.5803 64.654C53.6038 64.7643 53.6215 64.8758 53.6333 64.988C53.6563 65.245 53.6723 65.62 53.6833 66.071C54.4083 65.88 55.6713 65.596 56.5353 65.695C57.4673 65.799 58.8433 66.057 59.4023 66.167C59.4533 65.758 59.5203 65.35 59.5903 64.948C59.6013 64.883 59.6083 64.821 59.6193 64.758ZM64.6283 87.117C64.6933 87.128 64.7633 87.135 64.8363 87.141L64.6653 87.055C64.6523 87.076 64.6423 87.098 64.6283 87.117ZM62.2583 81.857L62.4313 79.458C61.6245 78.8967 60.6768 78.5722 59.6953 78.521L58.5073 80.428L56.2783 79.524C55.4294 80.1451 54.7852 81.0055 54.4283 81.995L55.9433 83.792L54.4283 85.589C54.7779 86.5542 55.4013 87.3966 56.2223 88.013L58.3353 87.155L59.5323 89.079C60.5688 89.0549 61.5751 88.7255 62.4253 88.132L62.2573 85.791L64.4683 85.246L64.4883 82.571C64.3955 82.5244 64.3204 82.449 64.2743 82.356L62.2583 81.857ZM59.9093 77.609C59.858 77.5235 59.8343 77.4244 59.8413 77.325C59.8453 77.284 60.2213 73.238 60.0973 71.759C60.0423 71.091 59.8793 70.4 59.7223 69.731C59.5273 68.902 59.3253 68.045 59.3253 67.219C59.3253 67.201 59.3293 67.183 59.3293 67.165C58.8823 67.078 57.3783 66.791 56.4253 66.685C55.6873 66.597 54.3963 66.902 53.7033 67.095L53.7113 67.67C53.7383 69.733 53.7733 72.302 54.0113 73.412C54.3813 75.141 55.8923 78.55 55.9073 78.584C55.9173 78.605 55.9153 78.627 55.9223 78.648C56.9473 77.9526 58.1577 77.5815 59.3963 77.583C59.5683 77.583 59.7383 77.595 59.9093 77.609ZM56.3473 56.8C55.7363 56.841 53.3643 57.029 50.5513 57.678C48.2653 58.206 47.7483 59.999 47.6303 60.795L48.0733 60.886C49.2613 61.126 50.8913 61.455 51.5883 62.269C51.8073 62.524 52.0533 62.709 52.3153 62.907C52.6173 63.136 52.9373 63.384 53.1913 63.737C53.7643 63.484 54.8803 63.158 56.7603 63.253C58.3893 63.331 59.2823 63.548 59.7723 63.741C59.8093 63.437 59.8393 63.139 59.8393 62.85C59.8393 62.078 59.1513 61.145 58.4853 60.243C58.1163 59.743 57.7343 59.225 57.4563 58.718C57.0978 58.0722 56.7281 57.4328 56.3473 56.8ZM53.2833 24.418C53.2833 24.4 53.2943 24.385 53.2963 24.367C53.3003 24.33 53.2983 24.293 53.3113 24.257C53.3143 24.246 53.4743 23.691 53.8393 20.736C54.1113 18.524 53.0883 16.261 52.5363 15.235C52.1798 15.5747 51.7616 15.8432 51.3043 16.026C51.2915 16.1166 51.253 16.2017 51.1933 16.271C50.9633 16.524 49.8133 17.727 48.7553 17.727C48.6933 17.727 48.6313 17.723 48.5693 17.715C47.6733 17.586 44.2253 14.859 42.8153 13.717C42.0203 14.351 41.1123 14.89 40.0033 15.477C37.9023 16.59 35.3633 18.479 34.0983 19.871C33.8013 20.198 33.4883 20.563 33.1723 20.948C33.7273 21.268 34.7403 21.865 35.9283 22.62C36.9073 23.2402 37.7104 24.1018 38.2603 25.122C40.0443 24.119 41.0013 22.519 41.0113 22.5C41.044 22.4435 41.0875 22.3939 41.1393 22.3542C41.1912 22.3145 41.2503 22.2854 41.3134 22.2685C41.3765 22.2517 41.4423 22.2474 41.5071 22.256C41.5718 22.2646 41.6342 22.2858 41.6908 22.3185C41.7473 22.3512 41.7969 22.3947 41.8366 22.4466C41.8763 22.4984 41.9054 22.5576 41.9223 22.6207C41.9391 22.6838 41.9434 22.7496 41.9348 22.8143C41.9262 22.879 41.905 22.9415 41.8723 22.998C41.8163 23.095 40.5773 25.164 38.2203 26.254C38.2133 26.257 38.2083 26.263 38.2013 26.265L38.1873 26.267C37.9593 26.371 37.7353 26.478 37.4863 26.561C36.5303 26.879 35.9093 27.143 35.4943 27.348L35.5013 27.361C35.9483 28.555 34.5843 30.054 33.1473 31.487L33.0523 31.582C32.0973 32.537 30.7613 34.151 30.1793 35.199C30.0069 35.4978 29.8227 35.7897 29.6273 36.074C29.0463 36.942 28.4983 37.762 28.7933 38.5C29.0953 39.256 30.0193 39.929 30.5813 40.264L30.5953 40.246C30.5953 40.246 30.6923 40.313 30.8313 40.405L30.8673 40.425C30.8733 40.428 30.8753 40.435 30.8813 40.439C31.5243 40.859 33.2203 41.879 35.1433 42.284C37.5853 42.798 42.9823 44.469 46.3243 44.983C48.4383 45.308 49.5223 44.657 50.0343 44.133C49.9765 43.9503 49.9445 43.7605 49.9393 43.569C49.9393 42.306 50.1373 39.705 50.8793 37.975C51.5353 36.444 51.7113 35.486 52.0023 33.899L52.1333 33.195C52.3163 32.221 52.4103 31.235 52.5033 30.28C52.6053 29.224 52.7013 28.226 52.9053 27.27C53.2763 25.554 53.2833 24.43 53.2833 24.418ZM74.6073 14.862C74.5543 14.067 73.9943 12.667 73.6763 12.336C73.5822 12.3517 73.4879 12.3657 73.3933 12.378C72.3833 12.52 71.7573 12.712 71.7573 13.237C71.7573 14.407 71.5233 17.035 71.1903 17.701C70.8163 18.45 69.1943 19.246 67.2453 19.637C66.0833 19.869 64.6523 20.005 63.2673 20.137C62.3423 20.225 61.4683 20.308 60.7963 20.411L60.3223 20.487C58.9913 20.702 58.0893 20.837 57.1533 19.881C56.9803 20.509 56.7763 21.348 56.7423 21.93C56.6953 22.749 56.5763 24.08 56.5173 24.723C57.0733 24.854 57.6163 24.949 58.0203 24.949C59.3453 24.949 63.6293 23.566 65.0123 22.937C65.7333 22.609 66.5903 22.28 67.4193 21.96C68.2323 21.648 69.0743 21.323 69.7673 21.009C70.2353 20.797 70.7163 20.641 71.1823 20.49C72.1473 20.178 72.9803 19.909 73.4153 19.257C73.8963 18.534 73.7813 16.41 73.5953 15.241C73.5802 15.1469 73.5924 15.0504 73.6306 14.963C73.6688 14.8757 73.7313 14.8012 73.8107 14.7484C73.89 14.6956 73.9829 14.6667 74.0782 14.6652C74.1736 14.6637 74.2673 14.6897 74.3483 14.74C74.4273 14.79 74.5253 14.834 74.6073 14.862Z" fill="#000654"/>
</svg>
