<svg width="69" height="85" viewBox="0 0 69 85" fill="none" xmlns="http://www.w3.org/2000/svg">
<path d="M69 72.1949L34.5066 85L0 72.1949V0H69V72.1949Z" fill="#FFC727"/>
<path d="M8.71245 15.2124H4.71973V66.74H8.71245V15.2124Z" fill="#455A64"/>
<path d="M16.6582 15.2124H12.6655V66.74H16.6582V15.2124Z" fill="#455A64"/>
<path d="M24.5909 15.2124H20.5981V66.74H24.5909V15.2124Z" fill="#455A64"/>
<path d="M32.5367 15.2124H28.5439V66.74H32.5367V15.2124Z" fill="#455A64"/>
<path d="M40.4693 15.2124H36.4766V66.74H40.4693V15.2124Z" fill="#455A64"/>
<path d="M48.4151 15.2124H44.4224V66.74H48.4151V15.2124Z" fill="#455A64"/>
<path d="M56.3475 15.2124H52.3547V66.74H56.3475V15.2124Z" fill="#455A64"/>
<path d="M64.2933 15.2124H60.3005V66.74H64.2933V15.2124Z" fill="#455A64"/>
<path d="M64.2932 68.046L34.5065 79.1096L4.71973 68.046V33.3699L64.2932 59.7739V68.046Z" fill="#455A64"/>
</svg>
