<svg width="86" height="89" viewBox="0 0 86 89" fill="none" xmlns="http://www.w3.org/2000/svg">
<path d="M42.6106 0.963867C19.149 0.963867 0.110565 20.6742 0.110565 44.9639C0.110565 69.2535 19.149 88.9639 42.6106 88.9639C66.0722 88.9639 85.1106 69.2535 85.1106 44.9639C85.1106 20.6742 66.0722 0.963867 42.6106 0.963867ZM42.6106 2.7972C65.1152 2.7972 83.3397 21.665 83.3397 44.9639C83.3397 68.2627 65.1152 87.1305 42.6106 87.1305C20.106 87.1305 1.8814 68.2627 1.8814 44.9639C1.8814 21.665 20.106 2.7972 42.6106 2.7972ZM33.9466 21.263C32.7106 21.3288 31.6558 22.2926 31.4668 23.6048L31.1209 26.0039L27.0016 27.6152C26.3376 27.8737 25.8101 28.3837 25.5179 29.0547C25.2257 29.7257 25.2025 30.4727 25.4522 31.1602L28.5822 39.736C28.8319 40.4235 29.3245 40.9661 29.9726 41.2686C30.3215 41.4317 30.6937 41.5156 31.0656 41.5156C31.3135 41.5156 31.5613 41.4493 31.8057 41.376C30.7963 43.5576 30.2182 46.0089 30.2182 48.6305C30.2182 55.016 33.7449 60.5564 38.8856 63.2972H29.3293C28.8406 63.2972 28.4439 63.7079 28.4439 64.2139C28.4439 64.7199 28.8406 65.1305 29.3293 65.1305H46.1522C54.9391 65.1305 62.0897 57.7275 62.0897 48.6305C62.0897 39.5335 54.9409 32.1305 46.1522 32.1305C44.2805 32.1305 42.5024 32.4623 40.8466 33.0508L41.9742 25.2305C42.1902 23.7308 41.1884 22.3264 39.7399 22.1009L34.4862 21.2917C34.3042 21.2628 34.1232 21.2536 33.9466 21.263ZM34.2268 23.1071L39.4805 23.9163C39.7142 23.953 39.9216 24.08 40.0615 24.278C40.2032 24.476 40.263 24.7199 40.2276 24.9619L38.9444 33.8779C38.6363 34.0356 38.3374 34.2014 38.0417 34.3792C38.0275 34.3866 38.0091 34.3952 37.9967 34.4043L35.3958 27.2751C35.1461 26.5876 34.6535 26.045 34.0054 25.7425C33.8443 25.6673 33.6774 25.6074 33.5074 25.5671C33.3356 25.5249 33.1621 25.5045 32.9886 25.499L33.2203 23.877C33.2557 23.635 33.3784 23.4202 33.5696 23.2754C33.7591 23.1306 33.9895 23.0704 34.2268 23.1071ZM24.0583 23.7158C23.835 23.6762 23.5969 23.7266 23.3977 23.8734C22.9993 24.1667 22.9086 24.7374 23.1902 25.1517L24.214 26.6449C24.3875 26.896 24.6588 27.0316 24.9368 27.0316C25.1139 27.0316 25.2929 26.9769 25.4487 26.8633C25.8471 26.5718 25.9412 25.9993 25.6597 25.585L24.6325 24.0882C24.4908 23.882 24.2817 23.7555 24.0583 23.7158ZM32.9229 27.3324C33.0433 27.3342 33.1606 27.3598 33.2722 27.4111C33.4882 27.512 33.6506 27.694 33.7356 27.9232L36.4853 35.4499C36.4817 35.4517 36.4784 35.4534 36.4749 35.457C35.2282 36.4324 34.1341 37.5926 33.2203 38.9053L31.3803 39.6214C31.1589 39.7076 30.9149 39.6989 30.7024 39.5999C30.4864 39.4991 30.3239 39.3171 30.2389 39.0879L27.1123 30.512C27.0273 30.2829 27.0357 30.0321 27.1331 29.8102C27.2305 29.5866 27.4063 29.4184 27.6277 29.3304L32.5977 27.3896C32.704 27.3475 32.8131 27.3305 32.9229 27.3324ZM21.1738 28.471C20.6904 28.3922 20.2367 28.7225 20.1535 29.223C20.0738 29.7216 20.3981 30.1914 20.8798 30.2757L22.6264 30.5837C22.676 30.591 22.7256 30.598 22.7752 30.598C23.2002 30.598 23.5724 30.2809 23.6467 29.8317C23.7282 29.333 23.4039 28.8616 22.9204 28.7754L21.1738 28.471ZM46.1522 33.9639C47.0784 33.9639 47.9838 34.0618 48.8604 34.2396L45.8237 36.5957L42.6936 34.4007C43.7986 34.1239 44.9516 33.9639 46.1522 33.9639ZM51.0047 34.8662C53.4166 35.781 55.5293 37.3432 57.1266 39.3672L55.2623 44.7454L51.3229 46.3997L46.8751 43.0518L46.7437 38.1748L51.0047 34.8662ZM40.5527 35.1169L44.9728 38.2106L45.1112 43.2988L41.023 46.3747L36.7136 45.0212L34.7214 39.9329C35.6511 38.6111 36.7593 37.457 38.0555 36.5348C38.0608 36.5312 38.064 36.5278 38.0693 36.5241C38.0977 36.5003 38.1256 36.4709 38.1593 36.4489C38.161 36.4471 38.1679 36.4507 38.1696 36.4489C38.3255 36.3407 38.4995 36.2347 38.6677 36.1302C38.8005 36.0459 38.9325 35.9638 39.0689 35.8831C39.3682 35.7126 39.6868 35.5433 40.0339 35.3747C40.0356 35.3728 40.039 35.3675 40.0408 35.3675C40.2126 35.285 40.3773 35.192 40.5527 35.1169ZM58.3613 41.2292C59.4787 43.1963 60.1587 45.4534 60.2809 47.8643L56.9882 45.2002L58.3613 41.2292ZM33.5523 41.8415L35.0015 45.5404L32.0132 48.054C32.0947 45.8064 32.6333 43.7023 33.5523 41.8415ZM46.1522 44.7741L50.0744 47.7282L48.5249 52.5443H43.6447L42.2163 47.7389L46.1522 44.7741ZM55.7466 46.5179L60.2082 50.1309C60.2188 50.14 60.2356 50.1343 60.2463 50.1416C59.9824 52.7798 59.0279 55.2054 57.5935 57.2422C57.5705 57.2385 57.5508 57.2261 57.5278 57.2243L51.8279 56.6478L50.1262 53.375L51.7968 48.1794L55.7466 46.5179ZM36.302 46.8079L40.4766 48.1185L41.9742 53.153L39.6742 56.125H33.9985C32.9998 54.398 32.3318 52.443 32.0928 50.3493L36.302 46.8079ZM43.2988 54.3776H48.6356L50.2888 57.5537L48.051 62.9141C48.0156 62.9929 48.0098 63.0769 47.9992 63.1576C47.3935 63.2401 46.7791 63.2972 46.1522 63.2972C44.9906 63.2972 43.8672 63.1354 42.787 62.8604V62.8532L41.1095 57.21L43.2988 54.3776ZM25.7876 57.7972C25.2989 57.7972 24.9022 58.2079 24.9022 58.7139C24.9022 59.2199 25.2989 59.6305 25.7876 59.6305H29.3293C29.8181 59.6305 30.2147 59.2199 30.2147 58.7139C30.2147 58.2079 29.8181 57.7972 29.3293 57.7972H25.7876ZM22.4224 57.8115C22.2519 57.7749 22.0718 57.7883 21.9036 57.8617C21.7973 57.9167 21.7085 57.9705 21.62 58.0622C21.4606 58.2455 21.3709 58.4684 21.3709 58.7067C21.3709 58.9634 21.4606 59.1822 21.62 59.3656C21.7793 59.5306 22.0089 59.6413 22.2391 59.6413C22.4693 59.6413 22.6984 59.5306 22.8755 59.3656C22.9463 59.2739 23.0195 59.1819 23.0726 59.0719C23.108 58.9436 23.1245 58.835 23.1245 58.7067C23.1245 58.4684 23.0348 58.2272 22.8755 58.0622C22.7515 57.9338 22.5928 57.8482 22.4224 57.8115ZM35.2332 57.9619H39.477L40.7291 62.1729C38.5793 61.2489 36.696 59.7952 35.2332 57.9619ZM51.8279 58.4919L56.2204 58.9359C54.5363 60.6977 52.4263 62.0131 50.064 62.7171L51.8279 58.4919ZM24.0168 63.2972C23.5281 63.2972 23.1314 63.7079 23.1314 64.2139C23.1314 64.7199 23.5281 65.1305 24.0168 65.1305H25.7876C26.2764 65.1305 26.6731 64.7199 26.6731 64.2139C26.6731 63.7079 26.2782 63.2972 25.7876 63.2972H24.0168Z" fill="#F2B844"/>
</svg>
