<svg width="87" height="82" viewBox="0 0 87 82" fill="none" xmlns="http://www.w3.org/2000/svg">
<path d="M48.2087 37.7343C45.2637 33.2296 40.9414 29.9031 35.9497 28.2994C35.8231 28.2572 35.6966 28.2186 35.5735 28.1801L35.2114 28.0736C29.3867 26.402 23.168 27.1593 17.8678 30.1857C12.5676 33.2122 8.60045 38.271 6.80365 44.2945C5.00685 50.3179 5.52096 56.8349 8.23746 62.47C10.954 68.1051 15.6604 72.4175 21.3634 74.4971C21.5936 74.5815 21.8397 74.666 22.0929 74.7486C24.063 75.3945 26.1064 75.7649 28.1696 75.8502C28.4597 75.863 28.7515 75.8685 29.0485 75.8685H29.5759C34.45 75.7483 39.1651 74.0337 43.0566 70.9662C46.9482 67.8987 49.82 63.633 51.2673 58.7704C51.4208 58.2588 51.5567 57.7442 51.6751 57.2264C52.4429 53.9055 52.531 50.4528 51.9337 47.094C51.3363 43.7351 50.067 40.5457 48.2087 37.7343ZM37.5546 31.8758L37.697 31.9437C37.8921 32.0374 38.0837 32.1273 38.2753 32.2338L38.4335 32.3146C38.6567 32.4339 38.88 32.5569 39.0997 32.6818L39.2192 32.7515C39.4056 32.8635 39.5919 32.9755 39.7747 33.093L39.9329 33.1922C40.1456 33.3299 40.3565 33.4712 40.5657 33.6181L40.6554 33.6842C40.8311 33.8127 41.0192 33.9467 41.1968 34.0808L41.3497 34.1983C41.5524 34.3537 41.7517 34.514 41.9474 34.6793L42.0036 34.727C42.1794 34.8794 42.3552 35.0336 42.531 35.1933L42.6751 35.3237C42.8649 35.4999 43.0524 35.6786 43.2376 35.8598L43.2481 35.8708L43.7755 36.4216C43.8194 36.4711 43.8651 36.5189 43.9091 36.5666C44.0761 36.7502 44.2431 36.9338 44.4048 37.1174L44.4311 37.1468L44.4399 37.1578L38.7622 37.2294L36.9429 31.5986C37.1468 31.6885 37.3524 31.7785 37.5546 31.874V31.8758ZM23.8981 30.6237C27.1475 29.7519 30.5517 29.7235 33.814 30.5411L36.3347 38.3218L32.2917 43.1723L24.327 43.2733L21.5145 38.6651L23.8981 30.6237ZM34.3061 53.2241L28.3929 57.8249L22.3759 53.3746L24.5696 46.0217L31.9419 45.9281L34.3061 53.2241ZM20.7956 31.7601L19.0835 37.5011L13.302 37.5745C15.3441 35.0665 17.9069 33.0779 20.7956 31.7601ZM9.30127 45.1037C9.79755 43.4399 10.4839 41.8446 11.3456 40.3523L19.3419 40.2513L22.1544 44.8577L19.755 52.9028L14.921 55.0527L8.39951 50.2278C8.50187 48.4881 8.80464 46.7677 9.30127 45.1037ZM11.5038 62.9123C9.84328 60.1138 8.8153 56.9568 8.49795 53.6812L13.2159 57.1695L11.5038 62.9123ZM21.5532 71.6404C18.4233 70.3781 15.6369 68.3346 13.4374 65.6883L15.8368 57.6432L20.6761 55.4933L27.18 60.2998L27.869 66.7256L21.5532 71.6404ZM33.8966 72.4959L33.8561 72.5069C33.6206 72.5657 33.3851 72.6208 33.153 72.6722L32.9614 72.7125C32.7188 72.7621 32.4745 72.808 32.2302 72.8484H32.2108C31.9612 72.8906 31.7099 72.9255 31.4585 72.9567L31.2651 72.9788C31.0366 73.0063 30.8063 73.0283 30.5778 73.0467H30.504C30.2526 73.065 30.003 73.0779 29.7517 73.0871H29.5618C29.3421 73.0871 29.1206 73.0963 28.8991 73.0871H28.7901C28.5388 73.0871 28.2874 73.0742 28.0378 73.0614L27.862 73.0504C27.6464 73.0381 27.4302 73.0216 27.2134 73.0008L27.0815 72.9879C26.8302 72.9622 26.5788 72.9329 26.3292 72.8961L26.1534 72.8704C25.9407 72.8392 25.728 72.8043 25.5171 72.7658L25.3642 72.7383C25.1444 72.696 24.9265 72.6483 24.7085 72.6006L29.2788 69.0407L33.9124 72.4684L33.8966 72.4959ZM37.0167 71.4164L30.5005 66.597L29.8114 60.1713L36.1149 55.2675L42.4993 57.3623L45.0288 65.1595C42.8892 67.8979 40.1377 70.0447 37.0167 71.4109V71.4164ZM49.6097 53.2975C49.6097 53.3416 49.6009 53.3838 49.5974 53.426C49.5763 53.672 49.5517 53.9181 49.5218 54.1604C49.5218 54.2136 49.5095 54.2669 49.5042 54.3201C49.469 54.5918 49.4304 54.8617 49.3864 55.1298C49.3776 55.1849 49.3671 55.2399 49.3583 55.295C49.3144 55.5429 49.2686 55.7907 49.2177 56.0294L49.1966 56.1359C49.1403 56.4058 49.077 56.6738 49.0103 56.9418C48.9944 57.0024 48.9786 57.063 48.9646 57.1254C48.8942 57.3972 48.8204 57.6762 48.7395 57.9388C48.6587 58.2013 48.5726 58.4749 48.4812 58.7392C48.4618 58.7998 48.4425 58.8586 48.4214 58.9228C48.3312 59.1823 48.2362 59.44 48.1366 59.6958C48.1243 59.7306 48.1103 59.7637 48.0962 59.7986C48.003 60.0299 47.9081 60.2612 47.8079 60.4889L47.7411 60.6431C47.6304 60.8909 47.5161 61.1351 47.3983 61.3775C47.3737 61.4252 47.3491 61.4711 47.3263 61.5188C47.2173 61.7392 47.103 61.9576 46.987 62.1724C46.9677 62.2091 46.9483 62.2459 46.9272 62.2826L46.8974 62.334L45.0903 56.7546L49.6132 53.2333C49.6114 53.2516 49.6114 53.2718 49.6097 53.292V53.2975ZM43.2815 54.7259L36.8954 52.6311L34.3765 44.854L38.4194 40.0035L46.4069 39.9044C48.2319 42.8804 49.3288 46.2792 49.6009 49.8019L43.2815 54.7259ZM86.0298 28.6556V28.5968C86.0298 28.5766 86.0298 28.5105 86.014 28.4683C86.0052 28.4224 85.9964 28.3765 85.9841 28.3324C85.9819 28.3236 85.979 28.315 85.9753 28.3067C85.9666 28.2719 85.956 28.2375 85.9436 28.2039L85.9226 28.1562C85.912 28.1323 85.9032 28.1066 85.8909 28.0809C85.8786 28.0552 85.8716 28.0479 85.8628 28.0295C85.854 28.0111 85.8399 27.9854 85.8259 27.9634C85.8118 27.9414 85.803 27.9304 85.7925 27.912C85.7819 27.8936 85.7661 27.8735 85.752 27.8533L85.7063 27.7982L85.6659 27.7523C85.6366 27.7192 85.6055 27.688 85.5727 27.6586L85.5323 27.6274L85.4725 27.5779L85.4058 27.5338L85.3636 27.5063L85.2897 27.4677L85.2493 27.4475L85.1755 27.4163L85.128 27.3979L85.0612 27.3777L85.0015 27.3631L84.9435 27.352L84.8749 27.3392H84.6183C84.5852 27.3415 84.5524 27.3458 84.5198 27.352H84.4899L63.347 31.1763L85.0313 3.11951C85.0499 3.09624 85.0669 3.07171 85.0823 3.04607L85.1104 3.00568L85.1456 2.94326L85.1755 2.88634L85.1948 2.84228C85.2074 2.81604 85.2186 2.78907 85.2282 2.7615C85.2282 2.7615 85.2282 2.74498 85.2282 2.7358C85.2282 2.72662 85.2511 2.6697 85.2599 2.63665C85.2607 2.62688 85.2607 2.61705 85.2599 2.60728C85.2599 2.57423 85.2757 2.54119 85.281 2.50814C85.2862 2.47509 85.281 2.45857 85.2915 2.4347C85.302 2.41083 85.2915 2.39798 85.2915 2.37962V2.12443C85.2915 2.09322 85.2827 2.06201 85.2774 2.03079C85.2783 2.01796 85.2783 2.00508 85.2774 1.99224C85.2774 1.96837 85.2669 1.94451 85.2616 1.92247C85.2568 1.90076 85.2509 1.87931 85.244 1.85822C85.2392 1.8407 85.2334 1.82353 85.2265 1.80681C85.218 1.77929 85.2081 1.75232 85.1966 1.72603C85.1973 1.7224 85.1973 1.71864 85.1966 1.71501L85.1808 1.68197C85.1685 1.65626 85.1562 1.62872 85.1421 1.60302L85.1157 1.55529L85.0753 1.48919L85.0366 1.43411C85.0228 1.41779 85.0098 1.40063 84.9979 1.38271L84.9452 1.32396L84.9101 1.2854C84.8891 1.26373 84.8667 1.24349 84.8433 1.22482L84.8186 1.20095C84.7958 1.18259 84.7729 1.16423 84.7483 1.14771L84.7079 1.11833C84.6898 1.10563 84.671 1.09399 84.6517 1.08345L84.5936 1.04857L84.5567 1.03204L84.4741 0.99349H84.4601C84.4249 0.978803 84.3897 0.965951 84.3546 0.954935H84.3423L84.2315 0.927397H83.9837C83.9491 0.925568 83.9145 0.925568 83.88 0.927397H83.8571L83.7728 0.940248H83.7288L83.6673 0.954935L83.6005 0.975131L83.5565 0.991654C83.5283 1.00075 83.5007 1.01179 83.4739 1.0247H83.4651L49.2071 16.8229L53.1604 5.3263L53.171 5.28775L53.1921 5.21798C53.1921 5.19595 53.2009 5.17392 53.2061 5.15189C53.2114 5.12986 53.2149 5.10966 53.2185 5.08763C53.222 5.0656 53.2185 5.0399 53.2272 5.01787C53.229 4.99649 53.229 4.97499 53.2272 4.95361V4.68373C53.2272 4.66169 53.2272 4.6415 53.2185 4.6213C53.2097 4.60111 53.2097 4.57357 53.2044 4.55154C53.1991 4.52951 53.1956 4.51115 53.1903 4.49095L53.1692 4.42302L53.1481 4.3606C53.1394 4.3404 53.1323 4.31837 53.1235 4.29818L53.0919 4.23208L53.0761 4.1972C53.0761 4.1972 53.0761 4.18435 53.0655 4.17884C53.055 4.17333 53.0392 4.13478 53.0269 4.11275C53.0167 4.09551 53.0056 4.07895 52.9935 4.06318C52.9804 4.04284 52.9663 4.02323 52.9513 4.00443L52.9144 3.95486L52.8669 3.90529L52.8247 3.85755L52.7737 3.81349L52.7263 3.77126L52.6735 3.73087L52.6208 3.69415L52.5663 3.66111L52.5065 3.62806L52.452 3.60236L52.3853 3.57298L52.3659 3.5638L52.329 3.55279L52.2622 3.53076L52.2024 3.51607L52.1356 3.50322H51.7032C51.6771 3.50695 51.6513 3.51247 51.6259 3.51974L51.5784 3.53259L51.5046 3.55646L51.4536 3.57482L51.3868 3.60419L51.3306 3.63357L51.2919 3.65193L15.6593 24.1336C11.1171 26.5608 7.22178 30.5227 4.39346 35.5936C1.59309 40.5727 0.105338 46.2377 0.081543 52.0124C0.081543 68.4624 12.8942 81.8463 28.646 81.8463C38.4247 81.8463 47.2788 77.5723 52.3343 70.4103L85.7204 29.5864L85.7415 29.5588L85.7995 29.4799C85.8136 29.4597 85.8241 29.4377 85.8382 29.4156L85.8663 29.3679C85.8804 29.3422 85.8909 29.3183 85.9032 29.2926L85.9243 29.2467C85.9349 29.2229 85.9436 29.1972 85.9524 29.1715C85.9612 29.1458 85.9647 29.1384 85.97 29.1219C85.9781 29.0985 85.9845 29.0746 85.9893 29.0503L86.0052 28.9915C86.0052 28.9695 86.0052 28.9475 86.0157 28.9254C86.0263 28.9034 86.0245 28.8795 86.0263 28.8575C86.028 28.8355 86.0263 28.8153 86.0263 28.7933V28.7235C86.0368 28.6978 86.035 28.6739 86.035 28.6482L86.0298 28.6556ZM50.3022 68.6478L50.2688 68.6918L50.2425 68.7286C45.6827 75.2186 37.6073 79.0943 28.639 79.0943C14.3409 79.0943 2.71123 66.9459 2.71123 52.0142C2.71123 41.4722 8.54014 31.0074 16.888 26.5681L16.9091 26.5552L16.9249 26.5461L49.4954 7.81951L45.681 18.9141L45.6704 18.9526C45.6616 18.9783 45.6546 19.004 45.6476 19.0297C45.6405 19.0554 45.6388 19.0701 45.6353 19.0903C45.6317 19.1105 45.6247 19.1381 45.6212 19.1619C45.6177 19.1858 45.6212 19.2042 45.6212 19.2243V19.564L45.6317 19.6264C45.6317 19.6503 45.6405 19.6723 45.6458 19.6962L45.6616 19.7604L45.681 19.8247C45.681 19.8467 45.6968 19.8706 45.7056 19.8926L45.7214 19.9367V19.9477C45.7442 20.0016 45.7707 20.0537 45.8005 20.1038C45.8093 20.1166 45.8163 20.1295 45.8251 20.1405C45.8512 20.1823 45.8794 20.2228 45.9095 20.2617L45.9306 20.2874C45.9671 20.3311 46.0065 20.3722 46.0483 20.4104L46.0782 20.4361C46.1144 20.4687 46.1525 20.4987 46.1925 20.526L46.2188 20.5444C46.2665 20.5748 46.3158 20.6024 46.3665 20.627L46.3981 20.6417C46.4245 20.6527 46.4491 20.6656 46.4755 20.6747L46.5317 20.6931L46.5616 20.7041C46.6142 20.7191 46.6676 20.7307 46.7216 20.739H46.7515C46.8096 20.7482 46.8684 20.7525 46.9272 20.7518C46.986 20.7511 47.0447 20.7468 47.103 20.739H47.147C47.2017 20.7292 47.2557 20.7157 47.3087 20.6986H47.321C47.3675 20.6833 47.4133 20.6655 47.4581 20.6454L79.5558 5.8165L59.0913 32.2944L59.0667 32.3293C59.0526 32.3495 59.0386 32.3678 59.0263 32.388L58.9911 32.4449L58.9595 32.5019L58.9278 32.5661C58.9278 32.5845 58.912 32.6028 58.905 32.623C58.8979 32.6432 58.8874 32.6671 58.8786 32.6891C58.8698 32.7111 58.8663 32.7295 58.8593 32.7497C58.8522 32.7699 58.847 32.7938 58.8417 32.8158C58.8364 32.8378 58.8312 32.858 58.8276 32.8801C58.8241 32.9021 58.8188 32.9223 58.8153 32.9443C58.8118 32.9663 58.8153 32.9902 58.8065 33.0141V33.2803C58.8065 33.3023 58.8065 33.3299 58.8153 33.3556C58.8145 33.369 58.8145 33.3825 58.8153 33.396C58.8145 33.4027 58.8145 33.4094 58.8153 33.4161C58.8153 33.4363 58.8153 33.4565 58.8276 33.4767L58.8435 33.5428L58.861 33.5979L58.8839 33.6658L58.905 33.7172C58.9138 33.7393 58.9243 33.7613 58.9349 33.7833L58.9595 33.8311L58.9964 33.8953C59.0052 33.91 59.014 33.9265 59.0245 33.9412L59.0702 34.0055L59.0983 34.0422C59.1229 34.0739 59.1493 34.104 59.1774 34.1322C59.2073 34.1634 59.239 34.1909 59.2706 34.2185H59.2811C59.3361 34.2644 59.3949 34.3049 59.4569 34.3396L59.4798 34.3525C59.5361 34.3856 59.5949 34.4138 59.6556 34.4369H59.6784C59.7422 34.4588 59.8074 34.476 59.8735 34.4883H59.8858C59.955 34.5 60.0249 34.5061 60.095 34.5067C60.1391 34.5063 60.1831 34.5032 60.2269 34.4975H60.3218L81.3399 30.7026L50.3022 68.6478Z" fill="#F2B844"/>
</svg>
