<svg width="89" height="89" viewBox="0 0 89 89" fill="none" xmlns="http://www.w3.org/2000/svg">
<path d="M44.4622 0.963867C20.1723 0.963867 0.462158 20.674 0.462158 44.9639C0.462158 69.2537 20.1723 88.9639 44.4622 88.9639C68.752 88.9639 88.4622 69.2537 88.4622 44.9639C88.4622 20.674 68.752 0.963867 44.4622 0.963867ZM44.4622 2.7972C67.7602 2.7972 86.6288 21.6659 86.6288 44.9639C86.6288 68.2637 67.7602 87.1305 44.4622 87.1305C21.1642 87.1305 2.29549 68.2637 2.29549 44.9639C2.29549 21.6659 21.1642 2.7972 44.4622 2.7972ZM16.0455 30.2972C15.8024 30.2972 15.5692 30.3938 15.3973 30.5657C15.2254 30.7376 15.1288 30.9708 15.1288 31.2139V60.5472C15.1288 60.7903 15.2254 61.0235 15.3973 61.1954C15.5692 61.3673 15.8024 61.4639 16.0455 61.4639H72.8788C73.1219 61.4639 73.3551 61.3673 73.527 61.1954C73.6989 61.0235 73.7955 60.7903 73.7955 60.5472V31.2139C73.7955 30.9708 73.6989 30.7376 73.527 30.5657C73.3551 30.3938 73.1219 30.2972 72.8788 30.2972H16.0455ZM16.9622 32.1305H43.5455V38.637C39.9412 39.0954 37.1288 42.1552 37.1288 45.8805C37.1288 49.6059 39.9412 52.6639 43.5455 53.1222V59.6305H16.9622V55.9639H27.0455C27.2886 55.9639 27.5218 55.8673 27.6937 55.6954C27.8656 55.5235 27.9622 55.2903 27.9622 55.0472V50.3429C28.5959 50.2177 29.1958 49.9595 29.7223 49.5854C30.2488 49.2112 30.6899 48.7295 31.0165 48.1722C31.4184 47.4753 31.63 46.685 31.63 45.8805C31.63 45.0761 31.4184 44.2857 31.0165 43.5889C30.6899 43.0316 30.2488 42.5499 29.7223 42.1757C29.1958 41.8015 28.5959 41.5433 27.9622 41.4182V36.7139C27.9622 36.4708 27.8656 36.2376 27.6937 36.0657C27.5218 35.8938 27.2886 35.7972 27.0455 35.7972H16.9622V32.1305ZM45.3788 32.1305H71.9622V35.7972H61.8788C61.6357 35.7972 61.4026 35.8938 61.2306 36.0657C61.0587 36.2376 60.9622 36.4708 60.9622 36.7139V41.4182C60.3285 41.5433 59.7285 41.8015 59.202 42.1757C58.6755 42.5499 58.2344 43.0316 57.9078 43.5889C57.5059 44.2857 57.2943 45.0761 57.2943 45.8805C57.2943 46.685 57.5059 47.4753 57.9078 48.1722C58.2344 48.7295 58.6755 49.2112 59.202 49.5854C59.7285 49.9595 60.3285 50.2177 60.9622 50.3429V55.0472C60.9622 55.2903 61.0587 55.5235 61.2306 55.6954C61.4026 55.8673 61.6357 55.9639 61.8788 55.9639H71.9622V59.6305H45.3788V53.1222C48.9832 52.6639 51.7955 49.6059 51.7955 45.8805C51.7955 42.1552 48.9832 39.0954 45.3788 38.637V32.1305ZM16.9622 37.6305H26.1288V54.1305H16.9622V50.4639H21.5455C21.7886 50.4639 22.0218 50.3673 22.1937 50.1954C22.3656 50.0235 22.4622 49.7903 22.4622 49.5472V42.2139C22.4622 41.9708 22.3656 41.7376 22.1937 41.5657C22.0218 41.3938 21.7886 41.2972 21.5455 41.2972H16.9622V37.6305ZM62.7955 37.6305H71.9622V41.2972H67.3788C67.1357 41.2972 66.9025 41.3938 66.7306 41.5657C66.5587 41.7376 66.4622 41.9708 66.4622 42.2139V49.5472C66.4622 49.7903 66.5587 50.0235 66.7306 50.1954C66.9025 50.3673 67.1357 50.4639 67.3788 50.4639H71.9622V54.1305H62.7955V37.6305ZM43.5455 40.4722V51.2889C42.264 51.0779 41.0994 50.418 40.2597 49.4272C39.42 48.4364 38.9601 47.1793 38.9622 45.8805C38.9601 44.5818 39.42 43.3247 40.2597 42.3339C41.0994 41.3431 42.264 40.6832 43.5455 40.4722ZM45.3788 40.4722C46.6603 40.6832 47.825 41.3431 48.6646 42.3339C49.5043 43.3247 49.9642 44.5818 49.9622 45.8805C49.9642 47.1793 49.5043 48.4364 48.6646 49.4272C47.825 50.418 46.6603 51.0779 45.3788 51.2889V40.4722ZM16.9622 43.1305H20.6288V48.6305H16.9622V43.1305ZM68.2955 43.1305H71.9622V48.6305H68.2955V43.1305ZM27.9622 43.6622C28.4993 43.8895 29.1245 43.9812 29.427 44.5055C29.6687 44.9235 29.796 45.3977 29.796 45.8805C29.796 46.3633 29.6687 46.8376 29.427 47.2555C29.1245 47.7799 28.4993 47.8697 27.9622 48.0989V43.6622ZM60.9622 43.6622V48.0989C60.425 47.8697 59.7998 47.7799 59.4973 47.2555C59.2556 46.8376 59.1283 46.3633 59.1283 45.8805C59.1283 45.3977 59.2556 44.9235 59.4973 44.5055C59.7998 43.9812 60.425 43.8895 60.9622 43.6622Z" fill="#F2B844"/>
</svg>
